<svg version="1.1" xmlns="http://www.w3.org/2000/svg" viewBox="0 0 1354.9578715733114 868.2304464067734" width="1354.9578715733114" height="868.2304464067734">
  <!-- svg-source:excalidraw -->
  
  <defs>
    <style class="style-fonts">
      @font-face {
        font-family: "Virgil";
        src: url("https://excalidraw.com/Virgil.woff2");
      }
      @font-face {
        font-family: "Cascadia";
        src: url("https://excalidraw.com/Cascadia.woff2");
      }
      @font-face {
        font-family: "Assistant";
        src: url("https://excalidraw.com/Assistant-Regular.woff2");
      }
    </style>
    
  </defs>
  <rect x="0" y="0" width="1354.9578715733114" height="868.2304464067734" fill="#ffffff"></rect><g stroke-linecap="round"><g transform="translate(461.19686283468394 786.2645698118718) rotate(0 62.33762468610493 -113.63643101283503)"><path d="M-0.35 1.17 C20.48 -36.95, 104.48 -189.48, 125.19 -227.56 M1.67 0.74 C22.37 -36.7, 103.73 -188.37, 124.51 -226.17" stroke="#e8590c" stroke-width="2" fill="none"></path></g></g><mask></mask><g stroke-linecap="round" transform="translate(130.22402191162098 164.9448024204799) rotate(0 85.21428571428575 37.5)"><path d="M18.75 0 C48.64 -0.65, 79.88 -0.46, 151.68 0 M18.75 0 C66.16 -0.85, 113.95 -1.72, 151.68 0 M151.68 0 C162.2 -1.82, 172.35 6.35, 170.43 18.75 M151.68 0 C164.14 -1.62, 169.16 5.41, 170.43 18.75 M170.43 18.75 C169.08 26.41, 171.66 36.62, 170.43 56.25 M170.43 18.75 C171.2 32.39, 171.51 45.53, 170.43 56.25 M170.43 56.25 C169.97 68.97, 162.68 75.45, 151.68 75 M170.43 56.25 C168.51 67, 162.55 75.83, 151.68 75 M151.68 75 C118.09 75.13, 85.18 74.59, 18.75 75 M151.68 75 C101.03 73.93, 49.45 73.9, 18.75 75 M18.75 75 C5.32 75.64, 0.38 69.46, 0 56.25 M18.75 75 C7.67 76.98, 0.25 69.55, 0 56.25 M0 56.25 C-1.76 47.56, 0.01 37.02, 0 18.75 M0 56.25 C0.07 43.19, -0.66 28.27, 0 18.75 M0 18.75 C0.28 6.13, 4.46 -1.05, 18.75 0 M0 18.75 C-1.1 5.46, 4.69 -1.93, 18.75 0" stroke="#1971c2" stroke-width="2" fill="none"></path></g><g stroke-linecap="round" transform="translate(450.224021911621 164.9448024204799) rotate(0 94.85714285714289 37)"><path d="M18.5 0 C73.3 0.25, 129.93 0.72, 171.21 0 M18.5 0 C73.84 0.33, 127.51 -0.91, 171.21 0 M171.21 0 C182.53 0.53, 188.39 4.25, 189.71 18.5 M171.21 0 C184.66 0.63, 190.22 8.38, 189.71 18.5 M189.71 18.5 C190.53 27.22, 191.59 38.74, 189.71 55.5 M189.71 18.5 C189.98 32.5, 190.13 46.94, 189.71 55.5 M189.71 55.5 C191.35 68.8, 185.19 72.83, 171.21 74 M189.71 55.5 C187.55 67.94, 184.96 73.48, 171.21 74 M171.21 74 C140.46 76.41, 105.87 76.21, 18.5 74 M171.21 74 C121.68 75.8, 71.69 74.98, 18.5 74 M18.5 74 C5.05 73.5, -0.72 66.05, 0 55.5 M18.5 74 C4.1 72.57, -0.95 66.63, 0 55.5 M0 55.5 C0.31 46.28, 0.37 32.89, 0 18.5 M0 55.5 C0.39 47.27, 0.21 39.65, 0 18.5 M0 18.5 C-0.98 7.7, 4.44 0.64, 18.5 0 M0 18.5 C1.8 6.93, 5.6 0.84, 18.5 0" stroke="#1971c2" stroke-width="2" fill="none"></path></g><g transform="translate(92.58766174316395 272.12660326276506) rotate(0 121.44791412353516 60)"><text x="0" y="0" font-family="Virgil, Segoe UI Emoji" font-size="16px" fill="#1e1e1e" text-anchor="start" style="white-space: pre;" direction="ltr" dominant-baseline="text-before-edge">"I want to build a wflow model</text><text x="0" y="20" font-family="Virgil, Segoe UI Emoji" font-size="16px" fill="#1e1e1e" text-anchor="start" style="white-space: pre;" direction="ltr" dominant-baseline="text-before-edge">over the alps. I want to</text><text x="0" y="40" font-family="Virgil, Segoe UI Emoji" font-size="16px" fill="#1e1e1e" text-anchor="start" style="white-space: pre;" direction="ltr" dominant-baseline="text-before-edge">decide the model structure, </text><text x="0" y="60" font-family="Virgil, Segoe UI Emoji" font-size="16px" fill="#1e1e1e" text-anchor="start" style="white-space: pre;" direction="ltr" dominant-baseline="text-before-edge">I want to choose the data </text><text x="0" y="80" font-family="Virgil, Segoe UI Emoji" font-size="16px" fill="#1e1e1e" text-anchor="start" style="white-space: pre;" direction="ltr" dominant-baseline="text-before-edge">inputs, configure the model </text><text x="0" y="100" font-family="Virgil, Segoe UI Emoji" font-size="16px" fill="#1e1e1e" text-anchor="start" style="white-space: pre;" direction="ltr" dominant-baseline="text-before-edge">outputs"</text></g><g transform="translate(417.224021911621 275.4448024204799) rotate(0 114.13593292236328 50)"><text x="0" y="0" font-family="Virgil, Segoe UI Emoji" font-size="16px" fill="#1e1e1e" text-anchor="start" style="white-space: pre;" direction="ltr" dominant-baseline="text-before-edge">"I want to experiment with </text><text x="0" y="20" font-family="Virgil, Segoe UI Emoji" font-size="16px" fill="#1e1e1e" text-anchor="start" style="white-space: pre;" direction="ltr" dominant-baseline="text-before-edge">different data inputs, time </text><text x="0" y="40" font-family="Virgil, Segoe UI Emoji" font-size="16px" fill="#1e1e1e" text-anchor="start" style="white-space: pre;" direction="ltr" dominant-baseline="text-before-edge">range, different hydrological </text><text x="0" y="60" font-family="Virgil, Segoe UI Emoji" font-size="16px" fill="#1e1e1e" text-anchor="start" style="white-space: pre;" direction="ltr" dominant-baseline="text-before-edge">processes, change constants,</text><text x="0" y="80" font-family="Virgil, Segoe UI Emoji" font-size="16px" fill="#1e1e1e" text-anchor="start" style="white-space: pre;" direction="ltr" dominant-baseline="text-before-edge">change wflow outputs"</text></g><g transform="translate(140.22402191162098 190.9448024204799) rotate(0 76.171875 12)"><text x="0" y="0" font-family="Cascadia, Segoe UI Emoji" font-size="20px" fill="#e8590c" text-anchor="start" style="white-space: pre;" direction="ltr" dominant-baseline="text-before-edge">hydromt build</text></g><g transform="translate(461.224021911621 188.9448024204799) rotate(0 82.03125 12)"><text x="0" y="0" font-family="Cascadia, Segoe UI Emoji" font-size="20px" fill="#e8590c" text-anchor="start" style="white-space: pre;" direction="ltr" dominant-baseline="text-before-edge">hydromt update</text></g><g stroke-linecap="round" transform="translate(916.3311647687639 162.05194527762268) rotate(0 90 34.928571428571445)"><path d="M17.46 0 C73.53 0.68, 127.37 -0.38, 162.54 0 M17.46 0 C68.84 0.04, 118.17 0.12, 162.54 0 M162.54 0 C172.4 0.24, 178.43 5.27, 180 17.46 M162.54 0 C173.13 2.21, 181.09 4.97, 180 17.46 M180 17.46 C177.94 23.98, 179.25 32.5, 180 52.39 M180 17.46 C179.74 25.1, 180.6 33.75, 180 52.39 M180 52.39 C180.26 62.32, 173.14 69.23, 162.54 69.86 M180 52.39 C178.68 62.82, 175.87 71.49, 162.54 69.86 M162.54 69.86 C115.86 71.65, 68.95 70.72, 17.46 69.86 M162.54 69.86 C131.52 70.1, 102.02 69.6, 17.46 69.86 M17.46 69.86 C5.95 69.77, -1.39 62.43, 0 52.39 M17.46 69.86 C4.62 70.45, 2 65.51, 0 52.39 M0 52.39 C0.29 43.76, -2.09 35.51, 0 17.46 M0 52.39 C-0.34 41.59, -0.08 31.34, 0 17.46 M0 17.46 C-0.53 5.36, 3.84 0.59, 17.46 0 M0 17.46 C-0.25 5.39, 4.23 -0.02, 17.46 0" stroke="#1971c2" stroke-width="2" fill="none"></path></g><g transform="translate(950.5910001482283 184.29866681780135) rotate(0 52.734375 12)"><text x="0" y="0" font-family="Cascadia, Segoe UI Emoji" font-size="20px" fill="#e8590c" text-anchor="start" style="white-space: pre;" direction="ltr" dominant-baseline="text-before-edge">run wflow</text></g><g transform="translate(895.6168790544781 266.1948024204799) rotate(0 111.13993072509766 12.5)"><text x="0" y="0" font-family="Virgil, Segoe UI Emoji" font-size="20px" fill="#1e1e1e" text-anchor="start" style="white-space: pre;" direction="ltr" dominant-baseline="text-before-edge">"I want to run wflow" </text></g><g stroke-linecap="round" transform="translate(18.22402191162098 139.9448024204799) rotate(0 379.5 144.5)"><path d="M32 0 C252.52 -2.31, 473.65 -1.86, 727 0 M727 0 C746.72 -0.82, 760.42 10.36, 759 32 M759 32 C759.98 102.67, 760.11 168.83, 759 257 M759 257 C758.24 280.21, 748.97 288.95, 727 289 M727 289 C483.87 286.88, 240.51 287.6, 32 289 M32 289 C11.59 288.11, -1.43 278.29, 0 257 M0 257 C-0.98 198.6, -0.66 138.14, 0 32 M0 32 C1.04 9.56, 9.61 -1.99, 32 0" stroke="#2f9e44" stroke-width="4.5" fill="none" stroke-dasharray="1.5 10"></path></g><g stroke-linecap="round" transform="translate(33.72402191162098 469.4448024204799) rotate(0 200.625 116.87499999999994)"><path d="M32 0 C145.27 0.33, 262.1 -0.47, 369.25 0 M369.25 0 C390.61 1.49, 399.42 10.37, 401.25 32 M401.25 32 C400.6 92.33, 398.31 157.53, 401.25 201.75 M401.25 201.75 C401.73 223.34, 389.65 234.92, 369.25 233.75 M369.25 233.75 C262.27 235.06, 159.11 234.48, 32 233.75 M32 233.75 C10.14 235.03, -1.37 221.31, 0 201.75 M0 201.75 C1.17 160.5, 1.25 119.49, 0 32 M0 32 C0.13 9.34, 8.76 -0.63, 32 0" stroke="#2f9e44" stroke-width="4.5" fill="none" stroke-dasharray="1.5 10"></path></g><g stroke-linecap="round" transform="translate(95.5097361973352 508.1948024204799) rotate(0 138.125 41.875)"><path d="M20.94 0 C112.38 1.42, 202.16 2.57, 255.31 0 M20.94 0 C97.04 -2.56, 174.86 -2.51, 255.31 0 M255.31 0 C270.86 -1.06, 275.33 7.29, 276.25 20.94 M255.31 0 C269.39 -0.99, 276.15 6.3, 276.25 20.94 M276.25 20.94 C276.52 30.51, 276.28 45.29, 276.25 62.81 M276.25 20.94 C275.79 32.1, 276.58 42.75, 276.25 62.81 M276.25 62.81 C277.77 78.74, 271.12 84.88, 255.31 83.75 M276.25 62.81 C275.81 76.1, 271.14 82.48, 255.31 83.75 M255.31 83.75 C196.56 83.22, 137.21 84.8, 20.94 83.75 M255.31 83.75 C202.8 83.95, 150.16 84.25, 20.94 83.75 M20.94 83.75 C7.91 84.9, 1.45 78.21, 0 62.81 M20.94 83.75 C6.41 81.7, -0.38 78.36, 0 62.81 M0 62.81 C-0.68 45.63, 1.39 30.1, 0 20.94 M0 62.81 C0.56 49.25, 0.73 36.84, 0 20.94 M0 20.94 C1.86 8.17, 6.63 -1.16, 20.94 0 M0 20.94 C2.3 8.47, 8.71 0.04, 20.94 0" stroke="#1971c2" stroke-width="2" fill="none"></path></g><g transform="translate(143.95130157470692 536.7175227573939) rotate(0 87.890625 12)"><text x="0" y="0" font-family="Cascadia, Segoe UI Emoji" font-size="20px" fill="#e8590c" text-anchor="start" style="white-space: pre;" direction="ltr" dominant-baseline="text-before-edge">train surrogate</text></g><g transform="translate(81.22402191162098 611.9448024204798) rotate(0 152.139892578125 24.999999999999943)"><text x="0" y="0" font-family="Virgil, Segoe UI Emoji" font-size="20px" fill="#1e1e1e" text-anchor="start" style="white-space: pre;" direction="ltr" dominant-baseline="text-before-edge">"I want a surrogate of wflow </text><text x="0" y="25" font-family="Virgil, Segoe UI Emoji" font-size="20px" fill="#1e1e1e" text-anchor="start" style="white-space: pre;" direction="ltr" dominant-baseline="text-before-edge">model" </text></g><g stroke-linecap="round" transform="translate(804.974021911621 139.4448024204799) rotate(0 193.75 144.375)"><path d="M32 0 C153.11 1.51, 277.29 -0.69, 355.5 0 M355.5 0 C374.95 0.31, 389.45 10.93, 387.5 32 M387.5 32 C386.27 110.51, 386.98 188.2, 387.5 256.75 M387.5 256.75 C386.92 276.25, 376.47 288.44, 355.5 288.75 M355.5 288.75 C266.94 286.98, 177.67 287.22, 32 288.75 M32 288.75 C12.15 289.53, -0.25 279.82, 0 256.75 M0 256.75 C-0.69 169.94, -1.48 80.91, 0 32 M0 32 C-1.01 10.62, 9.75 1.11, 32 0" stroke="#2f9e44" stroke-width="4.5" fill="none" stroke-dasharray="1.5 10"></path></g><g stroke-linecap="round" transform="translate(504.974021911621 476.9448024204799) rotate(0 128.75 53.75)"><path d="M26.88 0 C90.21 0.09, 155.64 1.8, 230.63 0 M26.88 0 C97.42 0.8, 169.16 0.44, 230.63 0 M230.63 0 C247.42 -0.36, 257.19 8.75, 257.5 26.88 M230.63 0 C246.48 1.9, 258.68 9.51, 257.5 26.88 M257.5 26.88 C255.3 44.23, 256.35 64.41, 257.5 80.63 M257.5 26.88 C256.77 45.73, 256.77 64.34, 257.5 80.63 M257.5 80.63 C256.29 98.48, 246.84 108.49, 230.63 107.5 M257.5 80.63 C256.97 98.75, 249.56 105.9, 230.63 107.5 M230.63 107.5 C150.65 106.63, 69.72 106.41, 26.88 107.5 M230.63 107.5 C164.14 105.76, 96.33 105.57, 26.88 107.5 M26.88 107.5 C7.26 108.61, -1.09 97.53, 0 80.63 M26.88 107.5 C6.87 107.94, 0.65 100.8, 0 80.63 M0 80.63 C0.79 67.04, -0.21 55.51, 0 26.88 M0 80.63 C-0.31 60.38, -0.13 39.31, 0 26.88 M0 26.88 C-1.89 8, 9.14 0.33, 26.88 0 M0 26.88 C-0.52 7.45, 10.04 0.17, 26.88 0" stroke="#1971c2" stroke-width="2" fill="none"></path></g><g transform="translate(541.9058609008788 502.5129634312221) rotate(0 82.03125 24)"><text x="0" y="0" font-family="Cascadia, Segoe UI Emoji" font-size="20px" fill="#e8590c" text-anchor="start" style="white-space: pre;" direction="ltr" dominant-baseline="text-before-edge">run parameter </text><text x="0" y="24" font-family="Cascadia, Segoe UI Emoji" font-size="20px" fill="#e8590c" text-anchor="start" style="white-space: pre;" direction="ltr" dominant-baseline="text-before-edge">learning</text></g><g stroke-linecap="round" transform="translate(887.474021911621 494.4448024204799) rotate(0 125.98214285714289 36.041666666666686)"><path d="M18.02 0 C75.11 -0.79, 134.86 0.42, 233.94 0 M18.02 0 C104.38 -1.23, 188.69 -1, 233.94 0 M233.94 0 C247.57 1.79, 253.76 7.33, 251.96 18.02 M233.94 0 C245.51 0.65, 250.71 7.6, 251.96 18.02 M251.96 18.02 C251.43 26.32, 253.65 37.45, 251.96 54.06 M251.96 18.02 C251.63 28.2, 251.84 38.41, 251.96 54.06 M251.96 54.06 C253.78 64.69, 245.62 71.3, 233.94 72.08 M251.96 54.06 C253.24 64.13, 244.61 73.57, 233.94 72.08 M233.94 72.08 C186.84 71.85, 140.94 72.73, 18.02 72.08 M233.94 72.08 C185.21 72.71, 135.55 72.76, 18.02 72.08 M18.02 72.08 C4.52 71.6, -0.2 66.23, 0 54.06 M18.02 72.08 C6.68 72.36, 0.16 64.91, 0 54.06 M0 54.06 C1.28 44.38, -0.41 33.73, 0 18.02 M0 54.06 C-0.13 44.7, -0.4 36.21, 0 18.02 M0 18.02 C-1.1 6.37, 5.05 -0.24, 18.02 0 M0 18.02 C-0.26 4.27, 6.83 -0.24, 18.02 0" stroke="#1971c2" stroke-width="2" fill="none"></path></g><g transform="translate(927.8960582188196 516.2142551967077) rotate(0 76.171875 12)"><text x="0" y="0" font-family="Cascadia, Segoe UI Emoji" font-size="20px" fill="#e8590c" text-anchor="start" style="white-space: pre;" direction="ltr" dominant-baseline="text-before-edge">run surrogate</text></g><g stroke-linecap="round" transform="translate(457.474021911621 464.4448024204799) rotate(0 170 126.87499999999994)"><path d="M32 0 C136.84 0.43, 241.98 1.2, 308 0 M308 0 C328.84 0.1, 340.66 11.34, 340 32 M340 32 C337.96 71.77, 339.92 109.5, 340 221.75 M340 221.75 C338.98 244.51, 330.33 253.02, 308 253.75 M308 253.75 C232.97 254.75, 158.09 255.37, 32 253.75 M32 253.75 C11.54 254.05, 0.76 242.77, 0 221.75 M0 221.75 C1.36 160.07, 2.08 95.37, 0 32 M0 32 C0.31 9.33, 11.42 1.54, 32 0" stroke="#2f9e44" stroke-width="4.5" fill="none" stroke-dasharray="1.5 10"></path></g><g stroke-linecap="round" transform="translate(816.224021911621 469.4448024204799) rotate(0 185 125.62499999999994)"><path d="M32 0 C102 0.58, 169.75 1.99, 338 0 M338 0 C359.18 -0.32, 369.85 11.74, 370 32 M370 32 C369.87 81.3, 370.31 133.87, 370 219.25 M370 219.25 C368.75 240.48, 358.39 249.52, 338 251.25 M338 251.25 C216.68 253.24, 96.76 251.77, 32 251.25 M32 251.25 C12.58 250.34, -1.69 241.57, 0 219.25 M0 219.25 C-1.36 161.68, 0.81 104.07, 0 32 M0 32 C0.16 9.38, 9.93 -0.92, 32 0" stroke="#2f9e44" stroke-width="4.5" fill="none" stroke-dasharray="1.5 10"></path></g><g transform="translate(858.8430695306687 606.9448024204798) rotate(0 137.6898956298828 24.999999999999943)"><text x="0" y="0" font-family="Virgil, Segoe UI Emoji" font-size="20px" fill="#1e1e1e" text-anchor="start" style="white-space: pre;" direction="ltr" dominant-baseline="text-before-edge">"I want seasonal forecasts</text><text x="0" y="25" font-family="Virgil, Segoe UI Emoji" font-size="20px" fill="#1e1e1e" text-anchor="start" style="white-space: pre;" direction="ltr" dominant-baseline="text-before-edge">of hydrological droughts"</text></g><g transform="translate(480.27164095924013 608.3733738490514) rotate(0 154.00985717773438 25)"><text x="0" y="0" font-family="Virgil, Segoe UI Emoji" font-size="20px" fill="#1e1e1e" text-anchor="start" style="white-space: pre;" direction="ltr" dominant-baseline="text-before-edge">"I want to find the optimal</text><text x="0" y="25" font-family="Virgil, Segoe UI Emoji" font-size="20px" fill="#1e1e1e" text-anchor="start" style="white-space: pre;" direction="ltr" dominant-baseline="text-before-edge">hydrological model parameters" </text></g><g stroke-linecap="round"><g transform="translate(226.8831035069055 58.31166676112582) rotate(0 23.86363983154297 30.113630294799833)"><path d="M0.81 -0.82 C8.69 9.47, 39.69 51.35, 47.37 61.34 M-0.23 1.37 C7.46 11.38, 37.98 50.05, 46.23 59.8" stroke="#2f9e44" stroke-width="2" fill="none"></path></g></g><mask></mask><g transform="translate(10 10) rotate(0 243.971923828125 22.5)"><text x="0" y="0" font-family="Virgil, Segoe UI Emoji" font-size="36px" fill="#2f9e44" text-anchor="start" style="white-space: pre;" direction="ltr" dominant-baseline="text-before-edge">CWL Application Components</text></g><g stroke-linecap="round"><g transform="translate(417.5025130760589 51.81729924300947) rotate(0 220.94155992780412 42.12661470685691)"><path d="M0.91 -0.57 C28.91 5.06, 93.42 20.86, 166.81 34.97 C240.21 49.07, 395.54 75.96, 441.28 84.06 M-0.08 1.74 C27.96 8.06, 93 22.44, 166.38 36.36 C239.76 50.28, 394.4 77.29, 440.2 85.27" stroke="#2f9e44" stroke-width="2" fill="none"></path></g></g><mask></mask><g stroke-linecap="round"><g transform="translate(59.43439021228946 63.70042999775279) rotate(0 9.740276336669936 196.9155829293387)"><path d="M-0.15 1.11 C2.89 66.59, 14.88 328.19, 18.29 393.55 M-1.69 0.65 C1.69 66.24, 16.77 329.34, 20.38 394.94" stroke="#2f9e44" stroke-width="2" fill="none"></path></g></g><mask></mask><g stroke-linecap="round"><g transform="translate(1233.977165222168 105.24349485124861) rotate(0 -67.53243582589289 46.75324576241633)"><path d="M0.23 0.58 C-22.42 16.36, -112.72 79.04, -135.09 94.62 M-1.11 -0.16 C-23.99 15.32, -113.87 77.72, -136.06 93.08" stroke="#1971c2" stroke-width="2" fill="none"></path></g></g><mask></mask><g stroke-linecap="round"><g transform="translate(1260.981012411095 99.9595819526499) rotate(0 -56.49344308035711 207.79221670968184)"><path d="M0.34 -1.18 C-18.52 67.86, -95.04 345.53, -114.08 415.11 M-0.94 0.81 C-19.36 69.95, -93.52 347.49, -111.94 416.4" stroke="#1971c2" stroke-width="2" fill="none"></path></g></g><mask></mask><g transform="translate(1161.2499400547567 50.89282172066828) rotate(0 91.85396575927734 22.5)"><text x="0" y="0" font-family="Virgil, Segoe UI Emoji" font-size="36px" fill="#1971c2" text-anchor="start" style="white-space: pre;" direction="ltr" dominant-baseline="text-before-edge">Containers</text></g><g stroke-linecap="round"><g transform="translate(397.6135962350028 794.8538943699427) rotate(0 -90.90909685407365 -116.88315255301336)"><path d="M-0.07 0.27 C-30.42 -38.42, -151.07 -193.39, -181.19 -232.58 M-1.56 -0.63 C-32.1 -39.59, -151.9 -195.17, -181.81 -234.08" stroke="#e8590c" stroke-width="2" fill="none"></path></g></g><mask></mask><g transform="translate(331.3798577444894 813.2304464067734) rotate(0 107.0279541015625 22.5)"><text x="0" y="0" font-family="Virgil, Segoe UI Emoji" font-size="36px" fill="#e8590c" text-anchor="start" style="white-space: pre;" direction="ltr" dominant-baseline="text-before-edge">Executables</text></g></svg>