<svg version="1.1" xmlns="http://www.w3.org/2000/svg" viewBox="0 0 2573.0297619047615 648.2499999999998" width="2573.0297619047615" height="648.2499999999998">
  <!-- svg-source:excalidraw -->
  
  <defs>
    <style class="style-fonts">
      @font-face {
        font-family: "Virgil";
        src: url("https://excalidraw.com/Virgil.woff2");
      }
      @font-face {
        font-family: "Cascadia";
        src: url("https://excalidraw.com/Cascadia.woff2");
      }
      @font-face {
        font-family: "Assistant";
        src: url("https://excalidraw.com/Assistant-Regular.woff2");
      }
    </style>
    
  </defs>
  <rect x="0" y="0" width="2573.0297619047615" height="648.2499999999998" fill="#ffffff"></rect><g stroke-linecap="round" transform="translate(122 44.196428571428214) rotate(0 85.21428571428575 37.5)"><path d="M18.75 0 C48.64 -0.65, 79.88 -0.46, 151.68 0 M18.75 0 C66.16 -0.85, 113.95 -1.72, 151.68 0 M151.68 0 C162.2 -1.82, 172.35 6.35, 170.43 18.75 M151.68 0 C164.14 -1.62, 169.16 5.41, 170.43 18.75 M170.43 18.75 C169.08 26.41, 171.66 36.62, 170.43 56.25 M170.43 18.75 C171.2 32.39, 171.51 45.53, 170.43 56.25 M170.43 56.25 C169.97 68.97, 162.68 75.45, 151.68 75 M170.43 56.25 C168.51 67, 162.55 75.83, 151.68 75 M151.68 75 C118.09 75.13, 85.18 74.59, 18.75 75 M151.68 75 C101.03 73.93, 49.45 73.9, 18.75 75 M18.75 75 C5.32 75.64, 0.38 69.46, 0 56.25 M18.75 75 C7.67 76.98, 0.25 69.55, 0 56.25 M0 56.25 C-1.76 47.56, 0.01 37.02, 0 18.75 M0 56.25 C0.07 43.19, -0.66 28.27, 0 18.75 M0 18.75 C0.28 6.13, 4.46 -1.05, 18.75 0 M0 18.75 C-1.1 5.46, 4.69 -1.93, 18.75 0" stroke="#1971c2" stroke-width="2" fill="none"></path></g><g stroke-linecap="round" transform="translate(442 44.196428571428214) rotate(0 94.85714285714289 37)"><path d="M18.5 0 C73.3 0.25, 129.93 0.72, 171.21 0 M18.5 0 C73.84 0.33, 127.51 -0.91, 171.21 0 M171.21 0 C182.53 0.53, 188.39 4.25, 189.71 18.5 M171.21 0 C184.66 0.63, 190.22 8.38, 189.71 18.5 M189.71 18.5 C190.53 27.22, 191.59 38.74, 189.71 55.5 M189.71 18.5 C189.98 32.5, 190.13 46.94, 189.71 55.5 M189.71 55.5 C191.35 68.8, 185.19 72.83, 171.21 74 M189.71 55.5 C187.55 67.94, 184.96 73.48, 171.21 74 M171.21 74 C140.46 76.41, 105.87 76.21, 18.5 74 M171.21 74 C121.68 75.8, 71.69 74.98, 18.5 74 M18.5 74 C5.05 73.5, -0.72 66.05, 0 55.5 M18.5 74 C4.1 72.57, -0.95 66.63, 0 55.5 M0 55.5 C0.31 46.28, 0.37 32.89, 0 18.5 M0 55.5 C0.39 47.27, 0.21 39.65, 0 18.5 M0 18.5 C-0.98 7.7, 4.44 0.64, 18.5 0 M0 18.5 C1.8 6.93, 5.6 0.84, 18.5 0" stroke="#1971c2" stroke-width="2" fill="none"></path></g><g transform="translate(73 143.1964285714282) rotate(0 148.52989196777344 75)"><text x="0" y="0" font-family="Virgil, Segoe UI Emoji" font-size="20px" fill="#1e1e1e" text-anchor="start" style="white-space: pre;" direction="ltr" dominant-baseline="text-before-edge">I want to build a wflow model</text><text x="0" y="25" font-family="Virgil, Segoe UI Emoji" font-size="20px" fill="#1e1e1e" text-anchor="start" style="white-space: pre;" direction="ltr" dominant-baseline="text-before-edge">over the alps. I want to</text><text x="0" y="50" font-family="Virgil, Segoe UI Emoji" font-size="20px" fill="#1e1e1e" text-anchor="start" style="white-space: pre;" direction="ltr" dominant-baseline="text-before-edge">decide the model structure, </text><text x="0" y="75" font-family="Virgil, Segoe UI Emoji" font-size="20px" fill="#1e1e1e" text-anchor="start" style="white-space: pre;" direction="ltr" dominant-baseline="text-before-edge">I want to choose the data </text><text x="0" y="100" font-family="Virgil, Segoe UI Emoji" font-size="20px" fill="#1e1e1e" text-anchor="start" style="white-space: pre;" direction="ltr" dominant-baseline="text-before-edge">inputs, configure the model </text><text x="0" y="125" font-family="Virgil, Segoe UI Emoji" font-size="20px" fill="#1e1e1e" text-anchor="start" style="white-space: pre;" direction="ltr" dominant-baseline="text-before-edge">outputs</text></g><g transform="translate(409 142.1964285714282) rotate(0 142.6698760986328 62.5)"><text x="0" y="0" font-family="Virgil, Segoe UI Emoji" font-size="20px" fill="#1e1e1e" text-anchor="start" style="white-space: pre;" direction="ltr" dominant-baseline="text-before-edge">I want to experiment with </text><text x="0" y="25" font-family="Virgil, Segoe UI Emoji" font-size="20px" fill="#1e1e1e" text-anchor="start" style="white-space: pre;" direction="ltr" dominant-baseline="text-before-edge">different data inputs, time </text><text x="0" y="50" font-family="Virgil, Segoe UI Emoji" font-size="20px" fill="#1e1e1e" text-anchor="start" style="white-space: pre;" direction="ltr" dominant-baseline="text-before-edge">range, different hydrological </text><text x="0" y="75" font-family="Virgil, Segoe UI Emoji" font-size="20px" fill="#1e1e1e" text-anchor="start" style="white-space: pre;" direction="ltr" dominant-baseline="text-before-edge">processes, change constants,</text><text x="0" y="100" font-family="Virgil, Segoe UI Emoji" font-size="20px" fill="#1e1e1e" text-anchor="start" style="white-space: pre;" direction="ltr" dominant-baseline="text-before-edge">change wflow outputs</text></g><g transform="translate(132 70.19642857142821) rotate(0 76.171875 12)"><text x="0" y="0" font-family="Cascadia, Segoe UI Emoji" font-size="20px" fill="#1e1e1e" text-anchor="start" style="white-space: pre;" direction="ltr" dominant-baseline="text-before-edge">hydromt build</text></g><g transform="translate(453 68.19642857142821) rotate(0 82.03125 12)"><text x="0" y="0" font-family="Cascadia, Segoe UI Emoji" font-size="20px" fill="#1e1e1e" text-anchor="start" style="white-space: pre;" direction="ltr" dominant-baseline="text-before-edge">hydromt update</text></g><g stroke-linecap="round" transform="translate(908.1071428571429 41.30357142857099) rotate(0 90 34.92857142857139)"><path d="M17.46 0 C73.53 0.68, 127.37 -0.38, 162.54 0 M17.46 0 C68.84 0.04, 118.17 0.12, 162.54 0 M162.54 0 C172.4 0.24, 178.43 5.27, 180 17.46 M162.54 0 C173.13 2.21, 181.09 4.97, 180 17.46 M180 17.46 C177.94 23.98, 179.25 32.5, 180 52.39 M180 17.46 C179.74 25.1, 180.6 33.75, 180 52.39 M180 52.39 C180.26 62.32, 173.14 69.23, 162.54 69.86 M180 52.39 C178.68 62.82, 175.87 71.49, 162.54 69.86 M162.54 69.86 C115.86 71.65, 68.95 70.72, 17.46 69.86 M162.54 69.86 C131.52 70.1, 102.02 69.6, 17.46 69.86 M17.46 69.86 C5.95 69.77, -1.39 62.43, 0 52.39 M17.46 69.86 C4.62 70.45, 2 65.51, 0 52.39 M0 52.39 C0.29 43.76, -2.09 35.51, 0 17.46 M0 52.39 C-0.34 41.59, -0.08 31.34, 0 17.46 M0 17.46 C-0.53 5.36, 3.84 0.59, 17.46 0 M0 17.46 C-0.25 5.39, 4.23 -0.02, 17.46 0" stroke="#1971c2" stroke-width="2" fill="none"></path></g><g transform="translate(944.9642857142858 67.44642857142821) rotate(0 52.734375 12)"><text x="0" y="0" font-family="Cascadia, Segoe UI Emoji" font-size="20px" fill="#1e1e1e" text-anchor="start" style="white-space: pre;" direction="ltr" dominant-baseline="text-before-edge">run wflow</text></g><g transform="translate(887.3928571428571 145.4464285714282) rotate(0 104.5799331665039 12.5)"><text x="0" y="0" font-family="Virgil, Segoe UI Emoji" font-size="20px" fill="#1e1e1e" text-anchor="start" style="white-space: pre;" direction="ltr" dominant-baseline="text-before-edge">I want to run wflow </text></g><g stroke-linecap="round" transform="translate(10 19.196428571428214) rotate(0 379.5 144.5)"><path d="M32 0 C252.52 -2.31, 473.65 -1.86, 727 0 M727 0 C746.72 -0.82, 760.42 10.36, 759 32 M759 32 C759.98 102.67, 760.11 168.83, 759 257 M759 257 C758.24 280.21, 748.97 288.95, 727 289 M727 289 C483.87 286.88, 240.51 287.6, 32 289 M32 289 C11.59 288.11, -1.43 278.29, 0 257 M0 257 C-0.98 198.6, -0.66 138.14, 0 32 M0 32 C1.04 9.56, 9.61 -1.99, 32 0" stroke="#2f9e44" stroke-width="4.5" fill="none" stroke-dasharray="1.5 10"></path></g><g stroke-linecap="round" transform="translate(25.5 348.6964285714282) rotate(0 200.625 116.875)"><path d="M32 0 C145.27 0.33, 262.1 -0.47, 369.25 0 M369.25 0 C390.61 1.49, 399.42 10.37, 401.25 32 M401.25 32 C400.6 92.33, 398.31 157.53, 401.25 201.75 M401.25 201.75 C401.73 223.34, 389.65 234.92, 369.25 233.75 M369.25 233.75 C262.27 235.06, 159.11 234.48, 32 233.75 M32 233.75 C10.14 235.03, -1.37 221.31, 0 201.75 M0 201.75 C1.17 160.5, 1.25 119.49, 0 32 M0 32 C0.13 9.34, 8.76 -0.63, 32 0" stroke="#e03131" stroke-width="4.5" fill="none" stroke-dasharray="1.5 10"></path></g><g stroke-linecap="round" transform="translate(87.28571428571422 387.4464285714282) rotate(0 138.125 41.875)"><path d="M20.94 0 C112.38 1.42, 202.16 2.57, 255.31 0 M20.94 0 C97.04 -2.56, 174.86 -2.51, 255.31 0 M255.31 0 C270.86 -1.06, 275.33 7.29, 276.25 20.94 M255.31 0 C269.39 -0.99, 276.15 6.3, 276.25 20.94 M276.25 20.94 C276.52 30.51, 276.28 45.29, 276.25 62.81 M276.25 20.94 C275.79 32.1, 276.58 42.75, 276.25 62.81 M276.25 62.81 C277.77 78.74, 271.12 84.88, 255.31 83.75 M276.25 62.81 C275.81 76.1, 271.14 82.48, 255.31 83.75 M255.31 83.75 C196.56 83.22, 137.21 84.8, 20.94 83.75 M255.31 83.75 C202.8 83.95, 150.16 84.25, 20.94 83.75 M20.94 83.75 C7.91 84.9, 1.45 78.21, 0 62.81 M20.94 83.75 C6.41 81.7, -0.38 78.36, 0 62.81 M0 62.81 C-0.68 45.63, 1.39 30.1, 0 20.94 M0 62.81 C0.56 49.25, 0.73 36.84, 0 20.94 M0 20.94 C1.86 8.17, 6.63 -1.16, 20.94 0 M0 20.94 C2.3 8.47, 8.71 0.04, 20.94 0" stroke="#1971c2" stroke-width="2" fill="none"></path></g><g transform="translate(100.5 413.6964285714282) rotate(0 123.046875 12)"><text x="0" y="0" font-family="Cascadia, Segoe UI Emoji" font-size="20px" fill="#1e1e1e" text-anchor="start" style="white-space: pre;" direction="ltr" dominant-baseline="text-before-edge">Train surrogate model</text></g><g transform="translate(73 491.1964285714282) rotate(0 133.45989990234375 25)"><text x="0" y="0" font-family="Virgil, Segoe UI Emoji" font-size="20px" fill="#1e1e1e" text-anchor="start" style="white-space: pre;" direction="ltr" dominant-baseline="text-before-edge">I want a surrogate wflow </text><text x="0" y="25" font-family="Virgil, Segoe UI Emoji" font-size="20px" fill="#1e1e1e" text-anchor="start" style="white-space: pre;" direction="ltr" dominant-baseline="text-before-edge">model </text></g><g stroke-linecap="round" transform="translate(796.75 18.696428571428214) rotate(0 193.75 144.375)"><path d="M32 0 C153.11 1.51, 277.29 -0.69, 355.5 0 M355.5 0 C374.95 0.31, 389.45 10.93, 387.5 32 M387.5 32 C386.27 110.51, 386.98 188.2, 387.5 256.75 M387.5 256.75 C386.92 276.25, 376.47 288.44, 355.5 288.75 M355.5 288.75 C266.94 286.98, 177.67 287.22, 32 288.75 M32 288.75 C12.15 289.53, -0.25 279.82, 0 256.75 M0 256.75 C-0.69 169.94, -1.48 80.91, 0 32 M0 32 C-1.01 10.62, 9.75 1.11, 32 0" stroke="#f08c00" stroke-width="4.5" fill="none" stroke-dasharray="1.5 10"></path></g><g stroke-linecap="round" transform="translate(496.75 356.1964285714282) rotate(0 128.75 53.75)"><path d="M26.88 0 C90.21 0.09, 155.64 1.8, 230.63 0 M26.88 0 C97.42 0.8, 169.16 0.44, 230.63 0 M230.63 0 C247.42 -0.36, 257.19 8.75, 257.5 26.88 M230.63 0 C246.48 1.9, 258.68 9.51, 257.5 26.88 M257.5 26.88 C255.3 44.23, 256.35 64.41, 257.5 80.63 M257.5 26.88 C256.77 45.73, 256.77 64.34, 257.5 80.63 M257.5 80.63 C256.29 98.48, 246.84 108.49, 230.63 107.5 M257.5 80.63 C256.97 98.75, 249.56 105.9, 230.63 107.5 M230.63 107.5 C150.65 106.63, 69.72 106.41, 26.88 107.5 M230.63 107.5 C164.14 105.76, 96.33 105.57, 26.88 107.5 M26.88 107.5 C7.26 108.61, -1.09 97.53, 0 80.63 M26.88 107.5 C6.87 107.94, 0.65 100.8, 0 80.63 M0 80.63 C0.79 67.04, -0.21 55.51, 0 26.88 M0 80.63 C-0.31 60.38, -0.13 39.31, 0 26.88 M0 26.88 C-1.89 8, 9.14 0.33, 26.88 0 M0 26.88 C-0.52 7.45, 10.04 0.17, 26.88 0" stroke="#1971c2" stroke-width="2" fill="none"></path></g><g transform="translate(515.5 374.9464285714282) rotate(0 117.1875 36)"><text x="0" y="0" font-family="Cascadia, Segoe UI Emoji" font-size="20px" fill="#1e1e1e" text-anchor="start" style="white-space: pre;" direction="ltr" dominant-baseline="text-before-edge">Calibration of </text><text x="0" y="24" font-family="Cascadia, Segoe UI Emoji" font-size="20px" fill="#1e1e1e" text-anchor="start" style="white-space: pre;" direction="ltr" dominant-baseline="text-before-edge">surrogate model </text><text x="0" y="48" font-family="Cascadia, Segoe UI Emoji" font-size="20px" fill="#1e1e1e" text-anchor="start" style="white-space: pre;" direction="ltr" dominant-baseline="text-before-edge">(parameter learning)</text></g><g stroke-linecap="round" transform="translate(879.25 373.6964285714282) rotate(0 125.98214285714289 36.041666666666686)"><path d="M18.02 0 C75.11 -0.79, 134.86 0.42, 233.94 0 M18.02 0 C104.38 -1.23, 188.69 -1, 233.94 0 M233.94 0 C247.57 1.79, 253.76 7.33, 251.96 18.02 M233.94 0 C245.51 0.65, 250.71 7.6, 251.96 18.02 M251.96 18.02 C251.43 26.32, 253.65 37.45, 251.96 54.06 M251.96 18.02 C251.63 28.2, 251.84 38.41, 251.96 54.06 M251.96 54.06 C253.78 64.69, 245.62 71.3, 233.94 72.08 M251.96 54.06 C253.24 64.13, 244.61 73.57, 233.94 72.08 M233.94 72.08 C186.84 71.85, 140.94 72.73, 18.02 72.08 M233.94 72.08 C185.21 72.71, 135.55 72.76, 18.02 72.08 M18.02 72.08 C4.52 71.6, -0.2 66.23, 0 54.06 M18.02 72.08 C6.68 72.36, 0.16 64.91, 0 54.06 M0 54.06 C1.28 44.38, -0.41 33.73, 0 18.02 M0 54.06 C-0.13 44.7, -0.4 36.21, 0 18.02 M0 18.02 C-1.1 6.37, 5.05 -0.24, 18.02 0 M0 18.02 C-0.26 4.27, 6.83 -0.24, 18.02 0" stroke="#1971c2" stroke-width="2" fill="none"></path></g><g transform="translate(893.5357142857142 398.8749999999998) rotate(0 111.328125 12)"><text x="0" y="0" font-family="Cascadia, Segoe UI Emoji" font-size="20px" fill="#1e1e1e" text-anchor="start" style="white-space: pre;" direction="ltr" dominant-baseline="text-before-edge">Run surrogate model</text></g><g stroke-linecap="round" transform="translate(449.25 343.6964285714282) rotate(0 170 126.875)"><path d="M32 0 C136.84 0.43, 241.98 1.2, 308 0 M308 0 C328.84 0.1, 340.66 11.34, 340 32 M340 32 C337.96 71.77, 339.92 109.5, 340 221.75 M340 221.75 C338.98 244.51, 330.33 253.02, 308 253.75 M308 253.75 C232.97 254.75, 158.09 255.37, 32 253.75 M32 253.75 C11.54 254.05, 0.76 242.77, 0 221.75 M0 221.75 C1.36 160.07, 2.08 95.37, 0 32 M0 32 C0.31 9.33, 11.42 1.54, 32 0" stroke="#6741d9" stroke-width="4.5" fill="none" stroke-dasharray="1.5 10"></path></g><g stroke-linecap="round" transform="translate(808 348.6964285714282) rotate(0 185 125.625)"><path d="M32 0 C102 0.58, 169.75 1.99, 338 0 M338 0 C359.18 -0.32, 369.85 11.74, 370 32 M370 32 C369.87 81.3, 370.31 133.87, 370 219.25 M370 219.25 C368.75 240.48, 358.39 249.52, 338 251.25 M338 251.25 C216.68 253.24, 96.76 251.77, 32 251.25 M32 251.25 C12.58 250.34, -1.69 241.57, 0 219.25 M0 219.25 C-1.36 161.68, 0.81 104.07, 0 32 M0 32 C0.16 9.38, 9.93 -0.92, 32 0" stroke="#e03131" stroke-width="4.5" fill="none" stroke-dasharray="1.5 10"></path></g><g transform="translate(850.6190476190477 486.1964285714282) rotate(0 134.40989685058594 25)"><text x="0" y="0" font-family="Virgil, Segoe UI Emoji" font-size="20px" fill="#1e1e1e" text-anchor="start" style="white-space: pre;" direction="ltr" dominant-baseline="text-before-edge">I want seasonal forecasts</text><text x="0" y="25" font-family="Virgil, Segoe UI Emoji" font-size="20px" fill="#1e1e1e" text-anchor="start" style="white-space: pre;" direction="ltr" dominant-baseline="text-before-edge">of droughts</text></g><g transform="translate(472.04761904761915 487.62499999999966) rotate(0 150.7298583984375 37.50000000000006)"><text x="0" y="0" font-family="Virgil, Segoe UI Emoji" font-size="20px" fill="#1e1e1e" text-anchor="start" style="white-space: pre;" direction="ltr" dominant-baseline="text-before-edge">I want to exploit deep</text><text x="0" y="25" font-family="Virgil, Segoe UI Emoji" font-size="20px" fill="#1e1e1e" text-anchor="start" style="white-space: pre;" direction="ltr" dominant-baseline="text-before-edge">learning to find the optimal</text><text x="0" y="50" font-family="Virgil, Segoe UI Emoji" font-size="20px" fill="#1e1e1e" text-anchor="start" style="white-space: pre;" direction="ltr" dominant-baseline="text-before-edge">hydrological model parameters </text></g><g stroke-linecap="round" transform="translate(1528.1130952380947 35) rotate(0 85.21428571428578 37.5)"><path d="M18.75 0 C59.93 -0.93, 106.19 -2.03, 151.68 0 M18.75 0 C54.23 -0.43, 91.01 -1.59, 151.68 0 M151.68 0 C163.02 -1.89, 172.04 5.39, 170.43 18.75 M151.68 0 C162.77 0.97, 171.62 4.68, 170.43 18.75 M170.43 18.75 C168.7 28.62, 172.14 40.31, 170.43 56.25 M170.43 18.75 C170.39 31.87, 170.91 45.12, 170.43 56.25 M170.43 56.25 C168.69 66.81, 165.58 76.2, 151.68 75 M170.43 56.25 C171.41 68.72, 166.33 74.52, 151.68 75 M151.68 75 C115.43 74.33, 74.98 74.71, 18.75 75 M151.68 75 C107.73 74.35, 61.39 74.55, 18.75 75 M18.75 75 C7.93 73.67, -1.39 69.36, 0 56.25 M18.75 75 C5.04 75.1, 0.34 66.82, 0 56.25 M0 56.25 C1.93 47.69, -0.18 36.16, 0 18.75 M0 56.25 C-0.93 49.16, 0.77 39.41, 0 18.75 M0 18.75 C-0.84 6.31, 6.94 1.5, 18.75 0 M0 18.75 C1.36 3.99, 6.6 1.37, 18.75 0" stroke="#1971c2" stroke-width="2" fill="none"></path></g><g stroke-linecap="round" transform="translate(1848.1130952380947 35) rotate(0 94.857142857143 37)"><path d="M18.5 0 C75.59 -1.13, 128.18 -1.1, 171.21 0 M18.5 0 C74.16 -1.36, 128.43 -1.54, 171.21 0 M171.21 0 C185.15 -0.86, 188.49 7.01, 189.71 18.5 M171.21 0 C184.74 -1.57, 189.5 6.51, 189.71 18.5 M189.71 18.5 C191.04 27.63, 190.38 38.63, 189.71 55.5 M189.71 18.5 C189.82 29.7, 188.73 39.69, 189.71 55.5 M189.71 55.5 C191.12 69.03, 184.4 73.97, 171.21 74 M189.71 55.5 C191.87 67.35, 183.25 74.39, 171.21 74 M171.21 74 C128.93 73.79, 88 75.19, 18.5 74 M171.21 74 C121.73 71.96, 75.03 71.98, 18.5 74 M18.5 74 C4.78 74.61, -1.05 67.92, 0 55.5 M18.5 74 C6.51 72.07, -0.56 66.03, 0 55.5 M0 55.5 C-0.78 44.12, -2 31.86, 0 18.5 M0 55.5 C1.15 45.45, -0.09 36.88, 0 18.5 M0 18.5 C0.69 7.67, 7.35 -1.97, 18.5 0 M0 18.5 C0.35 7.54, 4.17 -1.01, 18.5 0" stroke="#1971c2" stroke-width="2" fill="none"></path></g><g transform="translate(1479.1130952380947 134) rotate(0 148.52989196777344 75)"><text x="0" y="0" font-family="Virgil, Segoe UI Emoji" font-size="20px" fill="#1e1e1e" text-anchor="start" style="white-space: pre;" direction="ltr" dominant-baseline="text-before-edge">I want to build a wflow model</text><text x="0" y="25" font-family="Virgil, Segoe UI Emoji" font-size="20px" fill="#1e1e1e" text-anchor="start" style="white-space: pre;" direction="ltr" dominant-baseline="text-before-edge">over the alps. I want to</text><text x="0" y="50" font-family="Virgil, Segoe UI Emoji" font-size="20px" fill="#1e1e1e" text-anchor="start" style="white-space: pre;" direction="ltr" dominant-baseline="text-before-edge">decide the model structure, </text><text x="0" y="75" font-family="Virgil, Segoe UI Emoji" font-size="20px" fill="#1e1e1e" text-anchor="start" style="white-space: pre;" direction="ltr" dominant-baseline="text-before-edge">I want to choose the data </text><text x="0" y="100" font-family="Virgil, Segoe UI Emoji" font-size="20px" fill="#1e1e1e" text-anchor="start" style="white-space: pre;" direction="ltr" dominant-baseline="text-before-edge">inputs, configure the model </text><text x="0" y="125" font-family="Virgil, Segoe UI Emoji" font-size="20px" fill="#1e1e1e" text-anchor="start" style="white-space: pre;" direction="ltr" dominant-baseline="text-before-edge">outputs</text></g><g transform="translate(1815.1130952380947 133) rotate(0 142.6698760986327 62.5)"><text x="0" y="0" font-family="Virgil, Segoe UI Emoji" font-size="20px" fill="#1e1e1e" text-anchor="start" style="white-space: pre;" direction="ltr" dominant-baseline="text-before-edge">I want to experiment with </text><text x="0" y="25" font-family="Virgil, Segoe UI Emoji" font-size="20px" fill="#1e1e1e" text-anchor="start" style="white-space: pre;" direction="ltr" dominant-baseline="text-before-edge">different data inputs, time </text><text x="0" y="50" font-family="Virgil, Segoe UI Emoji" font-size="20px" fill="#1e1e1e" text-anchor="start" style="white-space: pre;" direction="ltr" dominant-baseline="text-before-edge">range, different hydrological </text><text x="0" y="75" font-family="Virgil, Segoe UI Emoji" font-size="20px" fill="#1e1e1e" text-anchor="start" style="white-space: pre;" direction="ltr" dominant-baseline="text-before-edge">processes, change constants,</text><text x="0" y="100" font-family="Virgil, Segoe UI Emoji" font-size="20px" fill="#1e1e1e" text-anchor="start" style="white-space: pre;" direction="ltr" dominant-baseline="text-before-edge">change wflow outputs</text></g><g transform="translate(1538.1130952380947 61) rotate(0 76.171875 12)"><text x="0" y="0" font-family="Cascadia, Segoe UI Emoji" font-size="20px" fill="#1e1e1e" text-anchor="start" style="white-space: pre;" direction="ltr" dominant-baseline="text-before-edge">hydromt build</text></g><g transform="translate(1859.1130952380947 59) rotate(0 82.03124999999989 12)"><text x="0" y="0" font-family="Cascadia, Segoe UI Emoji" font-size="20px" fill="#1e1e1e" text-anchor="start" style="white-space: pre;" direction="ltr" dominant-baseline="text-before-edge">hydromt update</text></g><g stroke-linecap="round" transform="translate(1477.9345238095239 372.10714285714255) rotate(0 127.14285714285711 44.92857142857139)"><path d="M22.46 0 C92.12 2.49, 164.35 -0.01, 231.82 0 M22.46 0 C94.03 1.39, 165.35 0.47, 231.82 0 M231.82 0 C245.77 1.66, 254.06 8.49, 254.29 22.46 M231.82 0 C248.43 -0.01, 253.59 7.48, 254.29 22.46 M254.29 22.46 C252.4 38.31, 255.54 52.19, 254.29 67.39 M254.29 22.46 C254.58 36.05, 254.45 50.26, 254.29 67.39 M254.29 67.39 C253.95 82.05, 246.84 90.58, 231.82 89.86 M254.29 67.39 C255.95 82.78, 248.45 87.82, 231.82 89.86 M231.82 89.86 C188.06 90.19, 147.21 90.48, 22.46 89.86 M231.82 89.86 C167.89 87.61, 104.6 89.03, 22.46 89.86 M22.46 89.86 C9.26 89.38, 0.58 80.67, 0 67.39 M22.46 89.86 C7.8 88.75, -2.02 84.6, 0 67.39 M0 67.39 C0.38 50.9, 1.82 34.2, 0 22.46 M0 67.39 C-0.94 57.89, -0.31 49.68, 0 22.46 M0 22.46 C0.51 7.93, 8.97 1.46, 22.46 0 M0 22.46 C-2.14 8.64, 9.18 -2.25, 22.46 0" stroke="#1971c2" stroke-width="2" fill="none"></path></g><g transform="translate(1503.1250000000002 394.9166666666665) rotate(0 105.46875 24)"><text x="0" y="0" font-family="Cascadia, Segoe UI Emoji" font-size="20px" fill="#1e1e1e" text-anchor="start" style="white-space: pre;" direction="ltr" dominant-baseline="text-before-edge">run differentiable</text><text x="0" y="24" font-family="Cascadia, Segoe UI Emoji" font-size="20px" fill="#1e1e1e" text-anchor="start" style="white-space: pre;" direction="ltr" dominant-baseline="text-before-edge">wflow</text></g><g transform="translate(1473.5059523809525 496.2499999999999) rotate(0 127.1799087524414 12.5)"><text x="0" y="0" font-family="Virgil, Segoe UI Emoji" font-size="20px" fill="#1e1e1e" text-anchor="start" style="white-space: pre;" direction="ltr" dominant-baseline="text-before-edge">I want to run diff wflow </text></g><g stroke-linecap="round" transform="translate(1416.1130952380947 10) rotate(0 379.4999999999999 144.5)"><path d="M32 0 C197.47 -1.51, 364.14 -1.81, 727 0 M727 0 C746.55 -1.03, 760.66 10.44, 759 32 M759 32 C759.85 110.75, 760.74 189.71, 759 257 M759 257 C757.26 276.4, 749.74 290.2, 727 289 M727 289 C488.76 291.5, 250.99 291.4, 32 289 M32 289 C12.61 288.66, -0.32 278.38, 0 257 M0 257 C-0.17 179.89, -3.06 104.63, 0 32 M0 32 C1.68 9.33, 9.28 0.61, 32 0" stroke="#2f9e44" stroke-width="4.5" fill="none" stroke-dasharray="1.5 10"></path></g><g stroke-linecap="round" transform="translate(1410.863095238095 349.4999999999999) rotate(0 193.75 144.37499999999994)"><path d="M32 0 C125.35 -2.01, 218.7 -1.3, 355.5 0 M355.5 0 C377.06 -1.74, 385.56 12.07, 387.5 32 M387.5 32 C389.93 112.53, 388.1 194.08, 387.5 256.75 M387.5 256.75 C387 280.02, 376.5 288.43, 355.5 288.75 M355.5 288.75 C257.93 291.37, 158.64 289.04, 32 288.75 M32 288.75 C9.29 290.43, -1.33 276.69, 0 256.75 M0 256.75 C1.27 181, 0.6 106.78, 0 32 M0 32 C0.46 12.3, 12.44 -0.48, 32 0" stroke="#f08c00" stroke-width="4.5" fill="none" stroke-dasharray="1.5 10"></path></g><g stroke-linecap="round" transform="translate(2270.5297619047615 29.33333333333337) rotate(0 128.75 53.75)"><path d="M26.88 0 C102.45 0.93, 178.25 -1, 230.63 0 M26.88 0 C68.65 -1.1, 110.49 -1.28, 230.63 0 M230.63 0 C248.29 0.34, 257 10.9, 257.5 26.88 M230.63 0 C248.16 -0.37, 257.55 9.79, 257.5 26.88 M257.5 26.88 C255.83 44.96, 256.22 68.6, 257.5 80.63 M257.5 26.88 C256.6 39.46, 257.27 51.11, 257.5 80.63 M257.5 80.63 C257.01 96.98, 249 109.14, 230.63 107.5 M257.5 80.63 C259.54 97.99, 249.21 105.54, 230.63 107.5 M230.63 107.5 C168.47 107.37, 101.57 105.15, 26.88 107.5 M230.63 107.5 C169.44 107.99, 107.33 109.4, 26.88 107.5 M26.88 107.5 C7.23 106.62, -0.48 99.37, 0 80.63 M26.88 107.5 C9.55 108.01, 1.7 100.22, 0 80.63 M0 80.63 C-2.23 70.99, 1.41 57.29, 0 26.88 M0 80.63 C0.38 66.26, -0.62 51.87, 0 26.88 M0 26.88 C0.31 9.9, 8.06 1.28, 26.88 0 M0 26.88 C-0.32 9.17, 8.07 0.79, 26.88 0" stroke="#1971c2" stroke-width="2" fill="none"></path></g><g transform="translate(2289.2797619047615 48.08333333333337) rotate(0 117.1875 36)"><text x="0" y="0" font-family="Cascadia, Segoe UI Emoji" font-size="20px" fill="#1e1e1e" text-anchor="start" style="white-space: pre;" direction="ltr" dominant-baseline="text-before-edge">Calibration of </text><text x="0" y="24" font-family="Cascadia, Segoe UI Emoji" font-size="20px" fill="#1e1e1e" text-anchor="start" style="white-space: pre;" direction="ltr" dominant-baseline="text-before-edge">diff. wflow</text><text x="0" y="48" font-family="Cascadia, Segoe UI Emoji" font-size="20px" fill="#1e1e1e" text-anchor="start" style="white-space: pre;" direction="ltr" dominant-baseline="text-before-edge">(parameter learning)</text></g><g stroke-linecap="round" transform="translate(2223.0297619047615 16.83333333333337) rotate(0 170 126.875)"><path d="M32 0 C134.14 0.54, 235.99 -1.11, 308 0 M308 0 C329.68 -0.5, 341.94 10.33, 340 32 M340 32 C341.49 86.22, 341.48 137.96, 340 221.75 M340 221.75 C338.07 241.71, 331.01 252.42, 308 253.75 M308 253.75 C244.44 252.86, 179.45 252.25, 32 253.75 M32 253.75 C9.1 254.21, 1.64 244.86, 0 221.75 M0 221.75 C-0.28 168.4, -2.31 118.92, 0 32 M0 32 C1.65 9.22, 9.83 0.06, 32 0" stroke="#6741d9" stroke-width="4.5" fill="none" stroke-dasharray="1.5 10"></path></g><g transform="translate(2245.8273809523807 160.76190476190493) rotate(0 150.7298583984375 37.5)"><text x="0" y="0" font-family="Virgil, Segoe UI Emoji" font-size="20px" fill="#1e1e1e" text-anchor="start" style="white-space: pre;" direction="ltr" dominant-baseline="text-before-edge">I want to exploit deep</text><text x="0" y="25" font-family="Virgil, Segoe UI Emoji" font-size="20px" fill="#1e1e1e" text-anchor="start" style="white-space: pre;" direction="ltr" dominant-baseline="text-before-edge">learning to find the optimal</text><text x="0" y="50" font-family="Virgil, Segoe UI Emoji" font-size="20px" fill="#1e1e1e" text-anchor="start" style="white-space: pre;" direction="ltr" dominant-baseline="text-before-edge">hydrological model parameters </text></g><g transform="translate(1466.685830252513 542.8869047619039) rotate(0 134.40989685058594 25)"><text x="0" y="0" font-family="Virgil, Segoe UI Emoji" font-size="20px" fill="#1e1e1e" text-anchor="start" style="white-space: pre;" direction="ltr" dominant-baseline="text-before-edge">I want seasonal forecasts</text><text x="0" y="25" font-family="Virgil, Segoe UI Emoji" font-size="20px" fill="#1e1e1e" text-anchor="start" style="white-space: pre;" direction="ltr" dominant-baseline="text-before-edge">of droughts</text></g></svg>