<svg version="1.1" xmlns="http://www.w3.org/2000/svg" viewBox="0 0 801.1197916666667 531.6666666666673" width="801.1197916666667" height="531.6666666666673">
  <!-- svg-source:excalidraw -->
  
  <defs>
    <style class="style-fonts">
      @font-face {
        font-family: "Virgil";
        src: url("https://excalidraw.com/Virgil.woff2");
      }
      @font-face {
        font-family: "Cascadia";
        src: url("https://excalidraw.com/Cascadia.woff2");
      }
      @font-face {
        font-family: "Assistant";
        src: url("https://excalidraw.com/Assistant-Regular.woff2");
      }
    </style>
    
  </defs>
  <rect x="0" y="0" width="801.1197916666667" height="531.6666666666673" fill="#ffffff"></rect><g stroke-linecap="round" transform="translate(10 13.333333333333371) rotate(0 113.33333333333337 64.16666666666669)"><path d="M32 0 C92.35 1.95, 150.96 0.33, 194.67 0 M32 0 C76.9 0.66, 120.81 2.31, 194.67 0 M194.67 0 C216.18 0.3, 226.36 11.98, 226.67 32 M194.67 0 C217.06 1.12, 228.11 11.56, 226.67 32 M226.67 32 C226.95 50.7, 225.76 70.43, 226.67 96.33 M226.67 32 C226.24 45.65, 226.81 59.82, 226.67 96.33 M226.67 96.33 C227.49 116.67, 216.07 128.55, 194.67 128.33 M226.67 96.33 C225.37 119.04, 218.26 130.16, 194.67 128.33 M194.67 128.33 C136.63 126.25, 79.23 127.26, 32 128.33 M194.67 128.33 C157.08 128.46, 121.13 128.27, 32 128.33 M32 128.33 C11.82 127.6, 1.21 116.26, 0 96.33 M32 128.33 C8.88 127.79, -0.1 118.66, 0 96.33 M0 96.33 C-1.3 73.57, -0.26 54.64, 0 32 M0 96.33 C-0.5 77.72, 0.24 59.45, 0 32 M0 32 C-0.09 9.36, 11.1 0.95, 32 0 M0 32 C0.62 8.79, 11.38 2.2, 32 0" stroke="#1e1e1e" stroke-width="2" fill="none"></path></g><g transform="translate(50 63.33333333333337) rotate(0 76.171875 12)"><text x="0" y="0" font-family="Cascadia, Segoe UI Emoji" font-size="20px" fill="#1e1e1e" text-anchor="start" style="white-space: pre;" direction="ltr" dominant-baseline="text-before-edge">Hydromt build</text></g><g stroke-linecap="round" transform="translate(503.33333333333326 10) rotate(0 129.16666666666674 65)"><path d="M32 0 C103.7 1.74, 169.95 0.35, 226.33 0 M32 0 C76.73 1.08, 121.19 1.73, 226.33 0 M226.33 0 C246.07 1.47, 260.07 9.22, 258.33 32 M226.33 0 C245.57 0.77, 257.6 10.09, 258.33 32 M258.33 32 C258.24 59.81, 257.15 84.53, 258.33 98 M258.33 32 C257.99 46.06, 258.69 61.54, 258.33 98 M258.33 98 C259.14 118.69, 249.05 131.72, 226.33 130 M258.33 98 C257.17 121.22, 249.52 129.95, 226.33 130 M226.33 130 C175.58 129.16, 124.61 129.48, 32 130 M226.33 130 C149.9 129.42, 72.31 127.73, 32 130 M32 130 C10.19 131.04, 0.45 120.4, 0 98 M32 130 C11.93 131.02, 0.94 118.78, 0 98 M0 98 C1.13 70.96, -2.04 43.66, 0 32 M0 98 C-0.17 81.15, -0.44 65.25, 0 32 M0 32 C0.64 8.94, 11.26 -1.75, 32 0 M0 32 C-1.42 11.8, 11.64 0.75, 32 0" stroke="#1e1e1e" stroke-width="2" fill="none"></path></g><g transform="translate(578.3333333333326 68.33333333333326) rotate(0 52.734375 12)"><text x="0" y="0" font-family="Cascadia, Segoe UI Emoji" font-size="20px" fill="#1e1e1e" text-anchor="start" style="white-space: pre;" direction="ltr" dominant-baseline="text-before-edge">Wflow run</text></g><g transform="translate(158.3333333333337 168.33333333333314) rotate(0 64.453125 12)"><text x="0" y="0" font-family="Cascadia, Segoe UI Emoji" font-size="20px" fill="#1e1e1e" text-anchor="start" style="white-space: pre;" direction="ltr" dominant-baseline="text-before-edge">output.json</text></g><g stroke-linecap="round"><g transform="translate(183.33333333333348 205.00000000000057) rotate(0 0 88.33333333333337)"><path d="M0.57 0.19 C0.6 29.49, 0.39 147.11, 0.31 176.41" stroke="#1e1e1e" stroke-width="2.5" fill="none" stroke-dasharray="8 10"></path></g><g transform="translate(183.33333333333348 205.00000000000057) rotate(0 0 88.33333333333337)"><path d="M-8.19 152.9 C-5.13 160.63, -3.25 167.52, 0.31 176.41" stroke="#1e1e1e" stroke-width="2.5" fill="none"></path></g><g transform="translate(183.33333333333348 205.00000000000057) rotate(0 0 88.33333333333337)"><path d="M8.91 152.94 C6.7 160.73, 3.32 167.61, 0.31 176.41" stroke="#1e1e1e" stroke-width="2.5" fill="none"></path></g></g><mask></mask><g stroke-linecap="round"><g transform="translate(40 386.6666666666673) rotate(0 0.8333333333332575 -117.49999999999994)"><path d="M-0.44 -0.24 C-0.25 -39.64, 0.59 -196.15, 1.09 -235.31" stroke="#1e1e1e" stroke-width="2.5" fill="none" stroke-dasharray="8 10"></path></g><g transform="translate(40 386.6666666666673) rotate(0 0.8333333333332575 -117.49999999999994)"><path d="M9.44 -211.75 C6.35 -219.74, 3.74 -224.33, 1.09 -235.31" stroke="#1e1e1e" stroke-width="2.5" fill="none"></path></g><g transform="translate(40 386.6666666666673) rotate(0 0.8333333333332575 -117.49999999999994)"><path d="M-7.66 -211.89 C-5.68 -219.78, -3.2 -224.33, 1.09 -235.31" stroke="#1e1e1e" stroke-width="2.5" fill="none"></path></g></g><mask></mask><g transform="translate(365.0000000000007 406.6666666666673) rotate(0 23.4375 12)"><text x="0" y="0" font-family="Cascadia, Segoe UI Emoji" font-size="20px" fill="#1e1e1e" text-anchor="start" style="white-space: pre;" direction="ltr" dominant-baseline="text-before-edge">STAC</text></g><g stroke-linecap="round"><g transform="translate(699.9354866008528 201.1560350328691) rotate(0 0 91.66666666666663)"><path d="M-1.19 1.01 C-1 31.66, 1.12 153.24, 1.16 183.68" stroke="#1e1e1e" stroke-width="2.5" fill="none" stroke-dasharray="8 10"></path></g><g transform="translate(699.9354866008528 201.1560350328691) rotate(0 0 91.66666666666663)"><path d="M-7.63 160.28 C-3.34 169.37, -1.79 172.91, 1.16 183.68" stroke="#1e1e1e" stroke-width="2.5" fill="none"></path></g><g transform="translate(699.9354866008528 201.1560350328691) rotate(0 0 91.66666666666663)"><path d="M9.47 160.1 C8.6 169.07, 4.99 172.67, 1.16 183.68" stroke="#1e1e1e" stroke-width="2.5" fill="none"></path></g></g><mask></mask><g stroke-linecap="round"><g transform="translate(548.2688199341858 382.8227016995356) rotate(0 0.8333333333332575 -112.49999999999994)"><path d="M1.16 0.35 C1.48 -37.26, 0.62 -187.14, 0.72 -224.68" stroke="#1e1e1e" stroke-width="2.5" fill="none" stroke-dasharray="8 10"></path></g><g transform="translate(548.2688199341858 382.8227016995356) rotate(0 0.8333333333332575 -112.49999999999994)"><path d="M9.32 -201.2 C7.98 -207.41, 6.2 -210.42, 0.72 -224.68" stroke="#1e1e1e" stroke-width="2.5" fill="none"></path></g><g transform="translate(548.2688199341858 382.8227016995356) rotate(0 0.8333333333332575 -112.49999999999994)"><path d="M-7.79 -201.17 C-5.69 -207.55, -4.03 -210.57, 0.72 -224.68" stroke="#1e1e1e" stroke-width="2.5" fill="none"></path></g></g><mask></mask><g stroke-linecap="round" transform="translate(19.999999999999773 446.6666666666672) rotate(0 379.16666666666674 37.50000000000006)"><path d="M18.75 0 C258.44 -0.76, 496.91 -0.49, 739.58 0 M18.75 0 C164.16 1.33, 309.41 0.77, 739.58 0 M739.58 0 C753.79 -0.42, 760.23 4.44, 758.33 18.75 M739.58 0 C749.83 -1.7, 756.37 6.59, 758.33 18.75 M758.33 18.75 C759.17 27.17, 756.87 39.92, 758.33 56.25 M758.33 18.75 C758.83 32.8, 758.47 46.52, 758.33 56.25 M758.33 56.25 C760.19 67.32, 750.35 73.72, 739.58 75 M758.33 56.25 C757.52 67.82, 753.56 72.77, 739.58 75 M739.58 75 C522.13 73.98, 306.01 74.56, 18.75 75 M739.58 75 C566.02 72.86, 393.36 73.26, 18.75 75 M18.75 75 C7.91 73.9, 1.38 67.98, 0 56.25 M18.75 75 C7.54 74.19, -1.86 67.02, 0 56.25 M0 56.25 C-0.17 44.03, -1.83 29.24, 0 18.75 M0 56.25 C0.92 40.64, 0.32 26.53, 0 18.75 M0 18.75 C1.77 6.06, 7.06 0.6, 18.75 0 M0 18.75 C1.15 4.29, 8.52 0.73, 18.75 0" stroke="#1e1e1e" stroke-width="2" fill="none"></path></g><g transform="translate(333.33333333333326 475.6666666666673) rotate(0 58.59375 12)"><text x="0" y="0" font-family="Cascadia, Segoe UI Emoji" font-size="20px" fill="#1e1e1e" text-anchor="start" style="white-space: pre;" direction="ltr" dominant-baseline="text-before-edge">FILESYSTEM</text></g><g stroke-linecap="round" transform="translate(23.33333333333303 393.3333333333338) rotate(0 379.16666666666686 23.333333333333314)"><path d="M11.67 0 C284.92 0.79, 558.75 0.42, 746.67 0 M746.67 0 C755.21 0.8, 757.28 2.79, 758.33 11.67 M758.33 11.67 C759.41 21.31, 758.18 27.62, 758.33 35 M758.33 35 C757.91 42.34, 756.01 45.76, 746.67 46.67 M746.67 46.67 C499.94 47.69, 253.79 48.52, 11.67 46.67 M11.67 46.67 C5.81 47.08, -1.18 42.6, 0 35 M0 35 C1.69 27.83, 0.83 20.1, 0 11.67 M0 11.67 C-1.07 2.32, 3.94 0.73, 11.67 0" stroke="#1e1e1e" stroke-width="2.5" fill="none" stroke-dasharray="8 10"></path></g><g stroke-linecap="round"><g transform="translate(133.33333333333326 151.66666666666742) rotate(0 0.8333333333333712 166.66666666666657)"><path d="M1.06 -0.92 C1.35 54.77, 1.92 278.12, 1.82 333.68 M0.16 1.21 C0.29 56.57, 0.52 276.4, 0.96 331.74" stroke="#1e1e1e" stroke-width="2" fill="none"></path></g><g transform="translate(133.33333333333326 151.66666666666742) rotate(0 0.8333333333333712 166.66666666666657)"><path d="M-7.68 308.28 C-6.66 315.69, -1.88 320.69, 0.96 331.74 M-7.68 308.28 C-5.27 313.53, -3.62 318.2, 0.96 331.74" stroke="#1e1e1e" stroke-width="2" fill="none"></path></g><g transform="translate(133.33333333333326 151.66666666666742) rotate(0 0.8333333333333712 166.66666666666657)"><path d="M9.42 308.22 C5.18 315.79, 4.7 320.81, 0.96 331.74 M9.42 308.22 C7.98 313.53, 5.77 318.22, 0.96 331.74" stroke="#1e1e1e" stroke-width="2" fill="none"></path></g></g><mask></mask><g stroke-linecap="round"><g transform="translate(648.1665212816836 149.45422867337936) rotate(0 -2.2737367544323206e-13 169.16666666666657)"><path d="M0.16 -0.93 C0.23 55.19, 0.92 281.24, 1.09 337.6 M-1.22 1.19 C-1.27 57.38, 0.34 282.63, 0.72 338.75" stroke="#1e1e1e" stroke-width="2" fill="none"></path></g><g transform="translate(648.1665212816836 149.45422867337936) rotate(0 -2.2737367544323206e-13 169.16666666666657)"><path d="M-7.99 315.31 C-6.29 325.44, -2.87 333.88, 0.72 338.75 M-7.99 315.31 C-5.17 320.01, -5.24 324.86, 0.72 338.75" stroke="#1e1e1e" stroke-width="2" fill="none"></path></g><g transform="translate(648.1665212816836 149.45422867337936) rotate(0 -2.2737367544323206e-13 169.16666666666657)"><path d="M9.11 315.2 C4.75 325.38, 2.1 333.87, 0.72 338.75 M9.11 315.2 C8.42 319.97, 4.85 324.84, 0.72 338.75" stroke="#1e1e1e" stroke-width="2" fill="none"></path></g></g><mask></mask><g stroke-linecap="round"><g transform="translate(97.33756987071229 480.2875620067125) rotate(0 1.1368683772161603e-13 -160.83333333333331)"><path d="M1.07 -0.13 C0.76 -54.01, -0.7 -268.63, -0.77 -322.21 M0.17 -1.24 C0.15 -54.45, 1.53 -267.8, 1.54 -320.96" stroke="#1e1e1e" stroke-width="2" fill="none"></path></g><g transform="translate(97.33756987071229 480.2875620067125) rotate(0 1.1368683772161603e-13 -160.83333333333331)"><path d="M10 -297.44 C6.29 -307.79, 2.29 -314.59, 1.54 -320.96 M10 -297.44 C8.09 -304.06, 5.11 -312.27, 1.54 -320.96" stroke="#1e1e1e" stroke-width="2" fill="none"></path></g><g transform="translate(97.33756987071229 480.2875620067125) rotate(0 1.1368683772161603e-13 -160.83333333333331)"><path d="M-7.1 -297.5 C-4.16 -307.99, -1.51 -314.75, 1.54 -320.96 M-7.1 -297.5 C-3.78 -304.13, -1.54 -312.32, 1.54 -320.96" stroke="#1e1e1e" stroke-width="2" fill="none"></path></g></g><mask></mask><g stroke-linecap="round"><g transform="translate(609.6176091622883 481.16941224535356) rotate(0 1.1368683772161603e-13 -160.83333333333331)"><path d="M-0.01 -0.57 C0.35 -54.14, 1.03 -266.96, 1.07 -320.66 M-1.47 1.74 C-1.09 -52.2, 0.5 -268.3, 0.69 -322.25" stroke="#1e1e1e" stroke-width="2" fill="none"></path></g><g transform="translate(609.6176091622883 481.16941224535356) rotate(0 1.1368683772161603e-13 -160.83333333333331)"><path d="M9.1 -298.71 C6.22 -301.92, 7.07 -308.28, 0.69 -322.25 M9.1 -298.71 C6.58 -303.9, 4.63 -307.82, 0.69 -322.25" stroke="#1e1e1e" stroke-width="2" fill="none"></path></g><g transform="translate(609.6176091622883 481.16941224535356) rotate(0 1.1368683772161603e-13 -160.83333333333331)"><path d="M-8 -298.81 C-7.25 -302, -2.77 -308.33, 0.69 -322.25 M-8 -298.81 C-6.92 -304.04, -5.27 -307.94, 0.69 -322.25" stroke="#1e1e1e" stroke-width="2" fill="none"></path></g></g><mask></mask><g transform="translate(662.2135416666665 159.66666666666742) rotate(0 64.45312500000011 12)"><text x="0" y="0" font-family="Cascadia, Segoe UI Emoji" font-size="20px" fill="#1e1e1e" text-anchor="start" style="white-space: pre;" direction="ltr" dominant-baseline="text-before-edge">output.json</text></g></svg>