<svg version="1.1" xmlns="http://www.w3.org/2000/svg" viewBox="0 0 808.1905110677089 567.2726949055997" width="808.1905110677089" height="567.2726949055997">
  <!-- svg-source:excalidraw -->
  
  <defs>
    <style class="style-fonts">
      @font-face {
        font-family: "Virgil";
        src: url("https://excalidraw.com/Virgil.woff2");
      }
      @font-face {
        font-family: "Cascadia";
        src: url("https://excalidraw.com/Cascadia.woff2");
      }
      @font-face {
        font-family: "Assistant";
        src: url("https://excalidraw.com/Assistant-Regular.woff2");
      }
    </style>
    
  </defs>
  <rect x="0" y="0" width="808.1905110677089" height="567.2726949055997" fill="#ffffff"></rect><g stroke-linecap="round" transform="translate(10 48.93936157226574) rotate(0 113.33333333333348 64.16666666666669)"><path d="M7.86 8.16 C7.86 8.16, 7.86 8.16, 7.86 8.16 M7.86 8.16 C7.86 8.16, 7.86 8.16, 7.86 8.16 M1.43 27.75 C7.54 18.95, 12.74 12.17, 24.4 1.33 M1.43 27.75 C7.49 20.15, 15.24 11.15, 24.4 1.33 M0.91 40.54 C12.82 26.25, 24.53 14.56, 36.34 -0.21 M0.91 40.54 C8.44 32.16, 16.31 23.15, 36.34 -0.21 M1.04 52.58 C19.44 31.31, 34.16 12.38, 46.97 -0.25 M1.04 52.58 C15.62 36.28, 29.37 18.64, 46.97 -0.25 M1.18 64.62 C13.51 50.22, 26.63 35.7, 57.6 -0.28 M1.18 64.62 C19.47 44.93, 37.46 23.17, 57.6 -0.28 M1.31 76.67 C21.42 53.9, 45.2 26.66, 67.57 0.44 M1.31 76.67 C26.71 47.18, 51.73 18.46, 67.57 0.44 M1.44 88.71 C16.53 70.32, 33.55 54.61, 78.2 0.41 M1.44 88.71 C29.84 55.26, 58.21 20.67, 78.2 0.41 M0.92 101.5 C26.3 72.29, 49.17 45.36, 88.83 0.37 M0.92 101.5 C28.3 69.42, 55.53 37.22, 88.83 0.37 M3.02 111.28 C40.6 68.47, 74.97 27.67, 99.46 0.34 M3.02 111.28 C23.61 86.94, 44.85 62.09, 99.46 0.34 M7.09 118.79 C42.21 78.96, 77.38 36.36, 110.09 0.3 M7.09 118.79 C44.4 75.27, 81.54 32.06, 110.09 0.3 M13.13 124.04 C44.76 88.25, 71.46 56.22, 120.72 0.27 M13.13 124.04 C46.06 85.24, 80.17 45.41, 120.72 0.27 M21.14 127.02 C42.57 99.27, 65.26 75.78, 131.35 0.23 M21.14 127.02 C64.55 76.42, 107.93 25.67, 131.35 0.23 M30.45 128.5 C70.17 82.96, 107.3 39.56, 141.98 0.2 M30.45 128.5 C68.79 85.06, 108.48 41.08, 141.98 0.2 M40.43 129.22 C76.9 88.81, 110.08 47.95, 152.61 0.16 M40.43 129.22 C76.41 88.17, 111.94 47.45, 152.61 0.16 M51.06 129.18 C77.75 99.1, 108.44 64.73, 163.24 0.13 M51.06 129.18 C73.81 103.58, 96.61 75.01, 163.24 0.13 M61.69 129.15 C96.96 86.16, 134.22 46.7, 173.87 0.09 M61.69 129.15 C89.76 97.98, 117.18 66.85, 173.87 0.09 M72.32 129.12 C117.91 78.31, 158.92 28.52, 184.5 0.06 M72.32 129.12 C100.87 96.55, 129.77 63.73, 184.5 0.06 M82.95 129.08 C107.12 97, 133.2 70.37, 195.13 0.03 M82.95 129.08 C118.87 87.27, 154.35 46.25, 195.13 0.03 M93.58 129.05 C133.48 79.17, 173.77 32.14, 204.45 1.5 M93.58 129.05 C119.26 98.89, 145.36 70.13, 204.45 1.5 M104.21 129.01 C125.72 104.36, 150.91 77.43, 212.46 4.48 M104.21 129.01 C139.1 89.93, 175.1 47.28, 212.46 4.48 M114.84 128.98 C153.94 84.26, 194.02 39.98, 219.15 8.98 M114.84 128.98 C150.53 87.34, 185.02 47.98, 219.15 8.98 M125.47 128.94 C148.61 100.83, 171.58 76.94, 223.88 15.74 M125.47 128.94 C150.91 100.44, 177.07 71.24, 223.88 15.74 M136.1 128.91 C165.77 93.13, 197.98 60.62, 226.63 24.76 M136.1 128.91 C168.1 90.77, 202.98 50.71, 226.63 24.76 M146.73 128.87 C163.31 108.41, 184.68 86.08, 226.77 36.8 M146.73 128.87 C172.51 99.6, 198.63 69.61, 226.77 36.8 M157.36 128.84 C183.69 97.73, 209.03 67.73, 226.9 48.84 M157.36 128.84 C183.4 98.66, 208.32 69.47, 226.9 48.84 M167.99 128.8 C188.03 108.72, 207.26 86.31, 227.03 60.88 M167.99 128.8 C191.25 102.3, 214.58 76.17, 227.03 60.88 M178.62 128.77 C186.5 116.87, 198.45 106.23, 227.17 72.92 M178.62 128.77 C197.09 106.91, 216.31 84.42, 227.17 72.92 M189.25 128.74 C202.93 111.99, 216.13 96.53, 227.3 84.96 M189.25 128.74 C202.57 114.49, 213.78 100.04, 227.3 84.96 M200.53 127.95 C209.02 118.49, 213.36 111.75, 226.78 97.76 M200.53 127.95 C209.66 118.54, 217.34 107.48, 226.78 97.76 M214.45 124.14 C215.71 121.05, 218.08 120.02, 222.97 114.33 M214.45 124.14 C215.68 121.99, 218.38 120.18, 222.97 114.33" stroke="#b2f2bb" stroke-width="1" fill="none"></path><path d="M32 0 C92.35 1.95, 150.96 0.33, 194.67 0 M32 0 C76.9 0.66, 120.81 2.31, 194.67 0 M194.67 0 C216.18 0.3, 226.36 11.98, 226.67 32 M194.67 0 C217.06 1.12, 228.11 11.56, 226.67 32 M226.67 32 C226.95 50.7, 225.76 70.43, 226.67 96.33 M226.67 32 C226.24 45.65, 226.81 59.82, 226.67 96.33 M226.67 96.33 C227.49 116.67, 216.07 128.55, 194.67 128.33 M226.67 96.33 C225.37 119.04, 218.26 130.16, 194.67 128.33 M194.67 128.33 C136.63 126.25, 79.23 127.26, 32 128.33 M194.67 128.33 C157.08 128.46, 121.13 128.27, 32 128.33 M32 128.33 C11.82 127.6, 1.21 116.26, 0 96.33 M32 128.33 C8.88 127.79, -0.1 118.66, 0 96.33 M0 96.33 C-1.3 73.57, -0.26 54.64, 0 32 M0 96.33 C-0.5 77.72, 0.24 59.45, 0 32 M0 32 C-0.09 9.36, 11.1 0.95, 32 0 M0 32 C0.62 8.79, 11.38 2.2, 32 0" stroke="#2f9e44" stroke-width="2" fill="none"></path></g><g transform="translate(37.878824869791515 18.13126881917333) rotate(0 76.171875 12)"><text x="0" y="0" font-family="Cascadia, Segoe UI Emoji" font-size="20px" fill="#2f9e44" text-anchor="start" style="white-space: pre;" direction="ltr" dominant-baseline="text-before-edge">model builder</text></g><g stroke-linecap="round" transform="translate(503.3333333333335 45.60602823893237) rotate(0 129.16666666666674 65)"><path d="M7.86 8.16 C7.86 8.16, 7.86 8.16, 7.86 8.16 M7.86 8.16 C7.86 8.16, 7.86 8.16, 7.86 8.16 M1.43 27.75 C7.86 19.06, 17.92 8.45, 24.4 1.33 M1.43 27.75 C7.64 19.37, 16.1 11.67, 24.4 1.33 M0.91 40.54 C9.01 32.3, 16.88 21.83, 36.34 -0.21 M0.91 40.54 C10.99 29.17, 22.72 16.92, 36.34 -0.21 M1.04 52.58 C19.49 34.23, 33.67 12.87, 46.97 -0.25 M1.04 52.58 C20.06 32.24, 38.14 11.62, 46.97 -0.25 M1.18 64.62 C23.71 40.3, 45.27 17.72, 57.6 -0.28 M1.18 64.62 C16.02 46.75, 31.22 30.63, 57.6 -0.28 M1.31 76.67 C21.59 51.04, 43.78 28.18, 67.57 0.44 M1.31 76.67 C16.51 60.84, 30.16 45.99, 67.57 0.44 M1.44 88.71 C21.32 65.97, 42.11 42.28, 78.2 0.41 M1.44 88.71 C28.01 58.49, 55.36 28, 78.2 0.41 M0.92 101.5 C31.28 66.58, 60.35 35.16, 88.83 0.37 M0.92 101.5 C30.47 65.94, 61.4 32.27, 88.83 0.37 M3.02 111.28 C23.58 85.63, 43.93 62.51, 99.46 0.34 M3.02 111.28 C38.71 68.08, 75.81 27.29, 99.46 0.34 M6.44 119.55 C43.81 76.74, 77.61 35.73, 110.09 0.3 M6.44 119.55 C30.11 90.8, 56.4 61.78, 110.09 0.3 M12.47 124.79 C51.42 80.85, 92.21 33.21, 120.72 0.27 M12.47 124.79 C53.05 77.4, 95.67 28.37, 120.72 0.27 M19.82 128.53 C48.06 96.15, 73.3 65.57, 131.35 0.23 M19.82 128.53 C58.98 81.53, 99.77 37.28, 131.35 0.23 M29.14 130.01 C74.39 79.49, 118.2 29.33, 141.98 0.2 M29.14 130.01 C56.67 97.42, 86.81 64.23, 141.98 0.2 M39.12 130.73 C72.15 95.95, 103.98 54.78, 152.61 0.16 M39.12 130.73 C82.5 80.24, 126.07 30.54, 152.61 0.16 M49.75 130.69 C92.59 84.95, 129.11 38.36, 163.24 0.13 M49.75 130.69 C82.32 95.14, 113.67 56.97, 163.24 0.13 M60.38 130.66 C97.39 85.97, 137.28 41.21, 173.87 0.09 M60.38 130.66 C84.9 103.88, 108.7 74.85, 173.87 0.09 M71.01 130.62 C103.24 93.58, 132.93 57.16, 184.5 0.06 M71.01 130.62 C113.67 81.34, 157.75 30.64, 184.5 0.06 M81.64 130.59 C106.91 103.2, 130.27 74.85, 195.13 0.03 M81.64 130.59 C127.75 78.66, 173.73 26.68, 195.13 0.03 M92.27 130.56 C137.25 81.34, 178.27 32.34, 205.76 -0.01 M92.27 130.56 C127.7 90.68, 162.65 49.57, 205.76 -0.01 M102.9 130.52 C137.51 91.07, 174.53 49.61, 216.39 -0.04 M102.9 130.52 C136.74 93.25, 169.31 55.16, 216.39 -0.04 M113.53 130.49 C141.73 96.08, 166.65 64.5, 226.37 0.68 M113.53 130.49 C140.22 99.64, 166.7 68.82, 226.37 0.68 M124.16 130.45 C148.11 104.82, 173.78 75.25, 236.34 1.4 M124.16 130.45 C156.85 94.61, 186.86 60.29, 236.34 1.4 M134.79 130.42 C158.31 102.79, 185.76 74.49, 244.35 4.38 M134.79 130.42 C176.34 84.35, 215.56 38.71, 244.35 4.38 M145.42 130.38 C169.05 101.69, 194.26 71.44, 250.39 9.63 M145.42 130.38 C183.73 86.77, 222.25 42.06, 250.39 9.63 M156.05 130.35 C180.89 100.19, 206.15 69.72, 255.11 16.39 M156.05 130.35 C184.85 95.88, 215.73 61.16, 255.11 16.39 M166.68 130.31 C196.14 96.6, 226.72 59.73, 258.52 24.66 M166.68 130.31 C202.17 88.41, 238.41 47.82, 258.52 24.66 M177.31 130.28 C199.58 104.35, 217.89 79.84, 258.66 36.7 M177.31 130.28 C201.13 101.61, 226.91 73.12, 258.66 36.7 M187.94 130.25 C216.04 97.99, 243.26 68.98, 258.79 48.74 M187.94 130.25 C202.42 112.57, 218.06 95.45, 258.79 48.74 M198.57 130.21 C217.94 108.33, 234.06 87.17, 258.27 61.53 M198.57 130.21 C213.78 113.56, 226.92 96.9, 258.27 61.53 M208.54 130.93 C219.03 114.61, 234.12 100.27, 258.4 73.57 M208.54 130.93 C224.73 112.08, 240.37 94.89, 258.4 73.57 M219.17 130.9 C228.18 120.9, 237.63 106.79, 258.53 85.61 M219.17 130.9 C226.8 121.18, 236.15 112.14, 258.53 85.61 M231.11 129.35 C234.78 123.97, 244.32 117.1, 258.67 97.65 M231.11 129.35 C237.67 123.33, 242.82 116.47, 258.67 97.65 M243.06 127.81 C248.19 122.08, 251.94 119.98, 255.52 113.47 M243.06 127.81 C248.33 122.26, 251.49 118.29, 255.52 113.47" stroke="#b2f2bb" stroke-width="1" fill="none"></path><path d="M32 0 C103.7 1.74, 169.95 0.35, 226.33 0 M32 0 C76.73 1.08, 121.19 1.73, 226.33 0 M226.33 0 C246.07 1.47, 260.07 9.22, 258.33 32 M226.33 0 C245.57 0.77, 257.6 10.09, 258.33 32 M258.33 32 C258.24 59.81, 257.15 84.53, 258.33 98 M258.33 32 C257.99 46.06, 258.69 61.54, 258.33 98 M258.33 98 C259.14 118.69, 249.05 131.72, 226.33 130 M258.33 98 C257.17 121.22, 249.52 129.95, 226.33 130 M226.33 130 C175.58 129.16, 124.61 129.48, 32 130 M226.33 130 C149.9 129.42, 72.31 127.73, 32 130 M32 130 C10.19 131.04, 0.45 120.4, 0 98 M32 130 C11.93 131.02, 0.94 118.78, 0 98 M0 98 C1.13 70.96, -2.04 43.66, 0 32 M0 98 C-0.17 81.15, -0.44 65.25, 0 32 M0 32 C0.64 8.94, 11.26 -1.75, 32 0 M0 32 C-1.42 11.8, 11.64 0.75, 32 0" stroke="#2f9e44" stroke-width="2" fill="none"></path></g><g transform="translate(541.9697062174482 10) rotate(0 70.3125 12)"><text x="0" y="0" font-family="Cascadia, Segoe UI Emoji" font-size="20px" fill="#2f9e44" text-anchor="start" style="white-space: pre;" direction="ltr" dominant-baseline="text-before-edge">model runner</text></g><g transform="translate(159.3435160319018 183.737335205078) rotate(0 64.453125 12)"><text x="0" y="0" font-family="Cascadia, Segoe UI Emoji" font-size="20px" fill="#2f9e44" text-anchor="start" style="white-space: pre;" direction="ltr" dominant-baseline="text-before-edge">output.json</text></g><g stroke-linecap="round"><g transform="translate(184.2022281257946 220.40400187174544) rotate(0 -0.43444739623032547 98.43434651692712)"><path d="M0.57 0.19 C0.46 32.85, -0.34 163.94, -0.56 196.62" stroke="#1e1e1e" stroke-width="2.5" fill="none" stroke-dasharray="8 10"></path></g><g transform="translate(184.2022281257946 220.40400187174544) rotate(0 -0.43444739623032547 98.43434651692712)"><path d="M-8.96 173.07 C-5.93 180.8, -4.08 187.71, -0.56 196.62" stroke="#1e1e1e" stroke-width="2.5" fill="none"></path></g><g transform="translate(184.2022281257946 220.40400187174544) rotate(0 -0.43444739623032547 98.43434651692712)"><path d="M8.14 173.18 C5.9 180.96, 2.48 187.83, -0.56 196.62" stroke="#1e1e1e" stroke-width="2.5" fill="none"></path></g></g><mask></mask><g stroke-linecap="round"><g transform="translate(64.24245198567723 420.25253295898517) rotate(0 0.8333333333332575 -117.49999999999994)"><path d="M-0.44 -0.24 C-0.25 -39.64, 0.59 -196.15, 1.09 -235.31" stroke="#1e1e1e" stroke-width="2.5" fill="none" stroke-dasharray="8 10"></path></g><g transform="translate(64.24245198567723 420.25253295898517) rotate(0 0.8333333333332575 -117.49999999999994)"><path d="M9.44 -211.75 C6.35 -219.74, 3.74 -224.33, 1.09 -235.31" stroke="#1e1e1e" stroke-width="2.5" fill="none"></path></g><g transform="translate(64.24245198567723 420.25253295898517) rotate(0 0.8333333333332575 -117.49999999999994)"><path d="M-7.66 -211.89 C-5.68 -219.78, -3.2 -224.33, 1.09 -235.31" stroke="#1e1e1e" stroke-width="2.5" fill="none"></path></g></g><mask></mask><g transform="translate(365.0000000000009 442.2726949055997) rotate(0 23.4375 12)"><text x="0" y="0" font-family="Cascadia, Segoe UI Emoji" font-size="20px" fill="#1e1e1e" text-anchor="start" style="white-space: pre;" direction="ltr" dominant-baseline="text-before-edge">STAC</text></g><g stroke-linecap="round"><g transform="translate(693.7925738948106 217.5701433092364) rotate(0 -0.8802061863086692 101.26262664794916)"><path d="M-1.19 1.01 C-1.29 34.86, -0.35 169.24, -0.6 202.88" stroke="#1e1e1e" stroke-width="2.5" fill="none" stroke-dasharray="8 10"></path></g><g transform="translate(693.7925738948106 217.5701433092364) rotate(0 -0.8802061863086692 101.26262664794916)"><path d="M-9.17 179.39 C-4.94 188.5, -3.46 192.07, -0.6 202.88" stroke="#1e1e1e" stroke-width="2.5" fill="none"></path></g><g transform="translate(693.7925738948106 217.5701433092364) rotate(0 -0.8802061863086692 101.26262664794916)"><path d="M7.94 179.38 C7 188.32, 3.32 191.89, -0.6 202.88" stroke="#1e1e1e" stroke-width="2.5" fill="none"></path></g></g><mask></mask><g stroke-linecap="round"><g transform="translate(560.389995064395 418.428729938468) rotate(0 0.8333333333332575 -112.49999999999994)"><path d="M1.16 0.35 C1.48 -37.26, 0.62 -187.14, 0.72 -224.68" stroke="#1e1e1e" stroke-width="2.5" fill="none" stroke-dasharray="8 10"></path></g><g transform="translate(560.389995064395 418.428729938468) rotate(0 0.8333333333332575 -112.49999999999994)"><path d="M9.32 -201.2 C7.98 -207.41, 6.2 -210.42, 0.72 -224.68" stroke="#1e1e1e" stroke-width="2.5" fill="none"></path></g><g transform="translate(560.389995064395 418.428729938468) rotate(0 0.8333333333332575 -112.49999999999994)"><path d="M-7.79 -201.17 C-5.69 -207.55, -4.03 -210.57, 0.72 -224.68" stroke="#1e1e1e" stroke-width="2.5" fill="none"></path></g></g><mask></mask><g stroke-linecap="round" transform="translate(20 482.27269490559956) rotate(0 379.16666666666674 37.50000000000006)"><path d="M18.75 0 C258.44 -0.76, 496.91 -0.49, 739.58 0 M18.75 0 C164.16 1.33, 309.41 0.77, 739.58 0 M739.58 0 C753.79 -0.42, 760.23 4.44, 758.33 18.75 M739.58 0 C749.83 -1.7, 756.37 6.59, 758.33 18.75 M758.33 18.75 C759.17 27.17, 756.87 39.92, 758.33 56.25 M758.33 18.75 C758.83 32.8, 758.47 46.52, 758.33 56.25 M758.33 56.25 C760.19 67.32, 750.35 73.72, 739.58 75 M758.33 56.25 C757.52 67.82, 753.56 72.77, 739.58 75 M739.58 75 C522.13 73.98, 306.01 74.56, 18.75 75 M739.58 75 C566.02 72.86, 393.36 73.26, 18.75 75 M18.75 75 C7.91 73.9, 1.38 67.98, 0 56.25 M18.75 75 C7.54 74.19, -1.86 67.02, 0 56.25 M0 56.25 C-0.17 44.03, -1.83 29.24, 0 18.75 M0 56.25 C0.92 40.64, 0.32 26.53, 0 18.75 M0 18.75 C1.77 6.06, 7.06 0.6, 18.75 0 M0 18.75 C1.15 4.29, 8.52 0.73, 18.75 0" stroke="#1e1e1e" stroke-width="2" fill="none"></path></g><g transform="translate(333.3333333333335 511.2726949055997) rotate(0 58.59375 12)"><text x="0" y="0" font-family="Cascadia, Segoe UI Emoji" font-size="20px" fill="#1e1e1e" text-anchor="start" style="white-space: pre;" direction="ltr" dominant-baseline="text-before-edge">FILESYSTEM</text></g><g stroke-linecap="round" transform="translate(23.33333333333303 428.9393615722662) rotate(0 379.16666666666697 23.333333333333314)"><path d="M11.67 0 C284.92 0.79, 558.75 0.42, 746.67 0 M746.67 0 C755.21 0.8, 757.28 2.79, 758.33 11.67 M758.33 11.67 C759.41 21.31, 758.18 27.62, 758.33 35 M758.33 35 C757.91 42.34, 756.01 45.76, 746.67 46.67 M746.67 46.67 C499.94 47.69, 253.79 48.52, 11.67 46.67 M11.67 46.67 C5.81 47.08, -1.18 42.6, 0 35 M0 35 C1.69 27.83, 0.83 20.1, 0 11.67 M0 11.67 C-1.07 2.32, 3.94 0.73, 11.67 0" stroke="#1e1e1e" stroke-width="2.5" fill="none" stroke-dasharray="8 10"></path></g><g stroke-linecap="round"><g transform="translate(133.33235455369186 135.7576497395841) rotate(0 0.8338227231540714 192.4241892496744)"><path d="M1.06 -0.92 C1.35 63.36, 1.92 321.05, 1.83 385.2 M0.16 1.21 C0.29 65.15, 0.52 319.32, 0.96 383.26" stroke="#1e1e1e" stroke-width="2" fill="none"></path></g><g transform="translate(133.33235455369186 135.7576497395841) rotate(0 0.8338227231540714 192.4241892496744)"><path d="M-7.67 359.79 C-6.65 367.2, -1.87 372.2, 0.96 383.26 M-7.67 359.79 C-5.26 365.04, -3.61 369.71, 0.96 383.26" stroke="#1e1e1e" stroke-width="2" fill="none"></path></g><g transform="translate(133.33235455369186 135.7576497395841) rotate(0 0.8338227231540714 192.4241892496744)"><path d="M9.43 359.74 C5.19 367.31, 4.71 372.33, 0.96 383.26 M9.43 359.74 C7.99 365.05, 5.77 369.74, 0.96 383.26" stroke="#1e1e1e" stroke-width="2" fill="none"></path></g></g><mask></mask><g stroke-linecap="round"><g transform="translate(645.136227499132 123.44409683744192) rotate(0 1.5151468912756627 199.97474670410148)"><path d="M0.16 -0.93 C0.74 65.46, 3.45 332.59, 4.12 399.21 M-1.22 1.19 C-0.76 67.65, 2.87 333.97, 3.75 400.36" stroke="#1e1e1e" stroke-width="2" fill="none"></path></g><g transform="translate(645.136227499132 123.44409683744192) rotate(0 1.5151468912756627 199.97474670410148)"><path d="M-5.12 376.99 C-3.36 387.09, 0.11 395.52, 3.75 400.36 M-5.12 376.99 C-2.26 381.67, -2.3 386.5, 3.75 400.36" stroke="#1e1e1e" stroke-width="2" fill="none"></path></g><g transform="translate(645.136227499132 123.44409683744192) rotate(0 1.5151468912756627 199.97474670410148)"><path d="M11.98 376.76 C7.68 386.96, 5.08 395.47, 3.75 400.36 M11.98 376.76 C11.33 381.54, 7.79 386.42, 3.75 400.36" stroke="#1e1e1e" stroke-width="2" fill="none"></path></g></g><mask></mask><g stroke-linecap="round"><g transform="translate(97.33756987071229 515.8935902456449) rotate(0 -1.5918405959450865 -191.64140065511063)"><path d="M1.07 -0.13 C0.23 -64.28, -3.35 -319.98, -3.95 -383.83 M0.17 -1.24 C-0.38 -64.72, -1.12 -319.14, -1.65 -382.58" stroke="#1e1e1e" stroke-width="2" fill="none"></path></g><g transform="translate(97.33756987071229 515.8935902456449) rotate(0 -1.5918405959450865 -191.64140065511063)"><path d="M7.03 -359.13 C3.23 -369.46, -0.84 -376.22, -1.65 -382.58 M7.03 -359.13 C5.06 -365.73, 2.01 -373.92, -1.65 -382.58" stroke="#1e1e1e" stroke-width="2" fill="none"></path></g><g transform="translate(97.33756987071229 515.8935902456449) rotate(0 -1.5918405959450865 -191.64140065511063)"><path d="M-10.07 -359.04 C-7.22 -369.55, -4.65 -376.35, -1.65 -382.58 M-10.07 -359.04 C-6.82 -365.69, -4.64 -373.91, -1.65 -382.58" stroke="#1e1e1e" stroke-width="2" fill="none"></path></g></g><mask></mask><g stroke-linecap="round"><g transform="translate(609.6176091622883 516.7754404842859) rotate(0 -2.525278727213845 -198.71210734049475)"><path d="M-0.01 -0.57 C-0.49 -66.76, -3.18 -330.09, -3.98 -396.41 M-1.47 1.74 C-1.93 -64.83, -3.71 -331.43, -4.37 -398.01" stroke="#1e1e1e" stroke-width="2" fill="none"></path></g><g transform="translate(609.6176091622883 516.7754404842859) rotate(0 -2.525278727213845 -198.71210734049475)"><path d="M4.37 -374.58 C1.42 -377.77, 2.21 -384.1, -4.37 -398.01 M4.37 -374.58 C1.78 -379.75, -0.24 -383.64, -4.37 -398.01" stroke="#1e1e1e" stroke-width="2" fill="none"></path></g><g transform="translate(609.6176091622883 516.7754404842859) rotate(0 -2.525278727213845 -198.71210734049475)"><path d="M-12.73 -374.45 C-12.05 -377.66, -7.64 -384.02, -4.37 -398.01 M-12.73 -374.45 C-11.72 -379.7, -10.13 -383.63, -4.37 -398.01" stroke="#1e1e1e" stroke-width="2" fill="none"></path></g></g><mask></mask><g transform="translate(669.2842610677089 182.14138793945398) rotate(0 64.453125 12)"><text x="0" y="0" font-family="Cascadia, Segoe UI Emoji" font-size="20px" fill="#2f9e44" text-anchor="start" style="white-space: pre;" direction="ltr" dominant-baseline="text-before-edge">output.json</text></g><g stroke-linecap="round" transform="translate(45.042622884114735 71.89163335164437) rotate(0 54.040400187174555 25.45458475748697)"><path d="M12.73 0 C34.48 -0.84, 49 -0.16, 95.35 0 C104.08 2.55, 107.34 4.95, 108.08 12.73 C111.35 22.99, 105.11 29.94, 108.08 38.18 C107.02 48.77, 103.66 51.68, 95.35 50.91 C74.74 54.59, 53.35 52.52, 12.73 50.91 C5.85 51.53, -1.37 46.83, 0 38.18 C-1.58 29.38, -1.33 20.18, 0 12.73 C-2.45 6.47, 6.45 -2.44, 12.73 0" stroke="none" stroke-width="0" fill="#ffffff"></path><path d="M12.73 0 C35.43 -0.19, 56.22 0.15, 95.35 0 M12.73 0 C41.51 0.44, 69.97 -0.08, 95.35 0 M95.35 0 C103.2 -1.88, 108.7 4.54, 108.08 12.73 M95.35 0 C103.98 1.87, 107.52 3.36, 108.08 12.73 M108.08 12.73 C107.63 23.34, 107.4 32.64, 108.08 38.18 M108.08 12.73 C109.21 18.79, 109.22 26.99, 108.08 38.18 M108.08 38.18 C108.69 47.86, 101.99 51.53, 95.35 50.91 M108.08 38.18 C106.57 45.16, 105.68 48.99, 95.35 50.91 M95.35 50.91 C69.61 52.28, 41.46 50.51, 12.73 50.91 M95.35 50.91 C69.46 49.54, 44.41 51.27, 12.73 50.91 M12.73 50.91 C4.53 49.61, 1.99 45.57, 0 38.18 M12.73 50.91 C5.8 53.05, -1.75 48.13, 0 38.18 M0 38.18 C2.23 28.39, -0.32 21.15, 0 12.73 M0 38.18 C-0.43 30.12, 1.09 23.59, 0 12.73 M0 12.73 C0.91 3.5, 4.86 1.33, 12.73 0 M0 12.73 C-0.5 6.36, 6.04 -1.98, 12.73 0" stroke="#1e1e1e" stroke-width="2" fill="none"></path></g><g transform="translate(57.96974182128952 85.84621810913137) rotate(0 41.11328125 11.5)"><text x="41.11328125" y="0" font-family="Helvetica, Segoe UI Emoji" font-size="20px" fill="#1e1e1e" text-anchor="middle" style="white-space: pre;" direction="ltr" dominant-baseline="text-before-edge">HydroMT</text></g><g stroke-linecap="round" transform="translate(553.8810984293623 67.49766159057668) rotate(0 54.040400187174555 22.929306030273438)"><path d="M11.46 0 C37.8 -3.93, 63.32 -2.59, 96.62 0 C105.84 -1.24, 104.93 2.63, 108.08 11.46 C107.81 23.22, 111.25 31.57, 108.08 34.39 C108.02 41.01, 107.46 49.41, 96.62 45.86 C67.4 42.45, 47.43 45.55, 11.46 45.86 C2.3 45.39, -0.73 40.21, 0 34.39 C2.98 29.86, -1.82 18.31, 0 11.46 C-3.3 3.25, 4.62 -1.9, 11.46 0" stroke="none" stroke-width="0" fill="#ffffff"></path><path d="M11.46 0 C32.03 0.98, 51.69 -0.34, 96.62 0 M11.46 0 C33.51 -0.04, 53.33 -0.16, 96.62 0 M96.62 0 C103.74 -0.12, 109.34 4.03, 108.08 11.46 M96.62 0 C102.69 -1.9, 105.79 3.66, 108.08 11.46 M108.08 11.46 C106.88 15.55, 108.39 22.6, 108.08 34.39 M108.08 11.46 C108.73 17.63, 108.37 23.46, 108.08 34.39 M108.08 34.39 C109.78 43.61, 102.8 45.1, 96.62 45.86 M108.08 34.39 C108.36 41.41, 103.07 44.12, 96.62 45.86 M96.62 45.86 C73.12 43.69, 50.44 46.19, 11.46 45.86 M96.62 45.86 C72.42 44.62, 46.99 45.41, 11.46 45.86 M11.46 45.86 C2.45 46.53, 1.32 40.27, 0 34.39 M11.46 45.86 C2.35 45.81, 2.05 41.87, 0 34.39 M0 34.39 C0.12 25.28, -0.96 18.64, 0 11.46 M0 34.39 C0.09 27.19, 0.29 21.97, 0 11.46 M0 11.46 C-1.37 5.74, 3.33 0.86, 11.46 0 M0 11.46 C0.61 3.26, 4.33 0.68, 11.46 0" stroke="#1e1e1e" stroke-width="2" fill="none"></path></g><g transform="translate(582.9166158040371 78.92696762085012) rotate(0 25.0048828125 11.5)"><text x="25.0048828125" y="0" font-family="Helvetica, Segoe UI Emoji" font-size="20px" fill="#1e1e1e" text-anchor="middle" style="white-space: pre;" direction="ltr" dominant-baseline="text-before-edge">wflow</text></g><g stroke-linecap="round" transform="translate(17.76987711588572 247.64918136596737) rotate(0 50.50501505533839 23.5)"><path d="M40.94 1.02 C49.35 -0.37, 61.76 -0.71, 70.22 0.78 C78.68 2.27, 86.56 6.39, 91.7 9.94 C96.84 13.5, 100.54 17.84, 101.06 22.13 C101.57 26.41, 99.35 31.96, 94.77 35.65 C90.2 39.35, 81.67 42.55, 73.6 44.3 C65.53 46.05, 55.56 46.54, 46.36 46.13 C37.16 45.73, 25.58 44.45, 18.38 41.88 C11.18 39.32, 5.86 34.83, 3.16 30.73 C0.47 26.64, 0.09 21.41, 2.22 17.29 C4.35 13.17, 8.58 8.72, 15.94 6.02 C23.3 3.33, 40.78 1.94, 46.39 1.11 C51.99 0.28, 49.61 0.69, 49.59 1.06 M67.02 1.67 C75.53 2.46, 84.03 5.17, 89.57 8.44 C95.11 11.72, 99.01 17.29, 100.24 21.33 C101.47 25.38, 100.73 28.81, 96.94 32.71 C93.15 36.61, 85.76 42.29, 77.51 44.73 C69.27 47.16, 57.01 47.45, 47.47 47.34 C37.93 47.23, 27.38 46.62, 20.26 44.07 C13.13 41.53, 7.82 36.01, 4.73 32.07 C1.64 28.13, 0.26 24.29, 1.7 20.42 C3.14 16.55, 7.11 12.4, 13.38 8.87 C19.64 5.34, 30.21 0.55, 39.32 -0.77 C48.42 -2.08, 63.41 0.33, 68.01 0.97 C72.61 1.62, 67.58 2.9, 66.94 3.09" stroke="none" stroke-width="0" fill="#ffffff"></path><path d="M72.77 1.52 C80.92 3.21, 89.37 8.36, 93.92 11.98 C98.48 15.6, 100.41 19.07, 100.11 23.22 C99.82 27.38, 97.06 33.31, 92.14 36.92 C87.21 40.52, 78.69 43.05, 70.57 44.84 C62.44 46.62, 52.43 48.24, 43.39 47.63 C34.36 47.03, 23.15 44.08, 16.35 41.2 C9.54 38.32, 4.87 34.6, 2.56 30.36 C0.24 26.12, -0.24 19.78, 2.45 15.77 C5.15 11.77, 11.99 9.07, 18.72 6.33 C25.46 3.58, 33.26 -0.32, 42.87 -0.7 C52.49 -1.08, 70.18 3.11, 76.41 4.04 C82.65 4.97, 80.51 4.67, 80.3 4.88 M61.34 0.68 C69.51 0.88, 78.68 2.79, 84.99 5.69 C91.29 8.58, 97.14 13.81, 99.16 18.05 C101.18 22.29, 100.16 27.16, 97.13 31.1 C94.11 35.03, 88.07 39.15, 81.01 41.66 C73.96 44.17, 64.16 45.53, 54.81 46.16 C45.46 46.78, 33.1 47.46, 24.91 45.42 C16.73 43.37, 9.7 37.94, 5.71 33.89 C1.72 29.84, 0.25 25.01, 0.99 21.11 C1.74 17.21, 4.85 13.72, 10.19 10.5 C15.53 7.29, 24.6 3.63, 33.04 1.82 C41.47 0.01, 56.02 -0.29, 60.8 -0.35 C65.58 -0.41, 61.8 0.89, 61.69 1.46" stroke="#1e1e1e" stroke-width="2" fill="none"></path></g><g transform="translate(62.50093010416549 259.53217200808353) rotate(0 5.5615234375 11.5)"><text x="5.5615234375" y="0" font-family="Helvetica, Segoe UI Emoji" font-size="20px" fill="#1e1e1e" text-anchor="middle" style="white-space: pre;" direction="ltr" dominant-baseline="text-before-edge">1</text></g><g stroke-linecap="round" transform="translate(105.44672648112055 305.765341440837) rotate(0 50.50501505533839 23.5)"><path d="M61.1 -0.14 C69.76 0.17, 79.94 3.24, 86.43 6.43 C92.93 9.62, 98.29 14.84, 100.08 18.99 C101.87 23.14, 100.44 27.36, 97.18 31.33 C93.92 35.3, 87.58 40.16, 80.53 42.79 C73.48 45.43, 64.01 46.76, 54.87 47.14 C45.72 47.51, 33.65 47.22, 25.66 45.07 C17.68 42.92, 11.06 38.01, 6.96 34.24 C2.86 30.48, 0.38 26.47, 1.04 22.48 C1.7 18.49, 5.72 13.86, 10.9 10.32 C16.08 6.77, 22.7 2.81, 32.13 1.22 C41.57 -0.38, 60.42 0.45, 67.49 0.75 C74.56 1.06, 74.62 2.43, 74.56 3.05 M35 0.81 C43.21 -1.2, 54.44 -2.02, 62.99 -0.72 C71.54 0.58, 80.08 5.47, 86.31 8.59 C92.53 11.72, 98.72 14.26, 100.33 18.04 C101.94 21.82, 99.16 27.41, 95.99 31.29 C92.82 35.16, 88.4 38.61, 81.31 41.3 C74.22 43.99, 62.64 46.78, 53.44 47.44 C44.23 48.09, 34.14 47.54, 26.08 45.24 C18.02 42.93, 9.44 37.61, 5.06 33.62 C0.68 29.63, -1.29 25.47, -0.21 21.3 C0.86 17.14, 5.63 11.85, 11.5 8.62 C17.38 5.39, 31.29 2.99, 35.02 1.92 C38.75 0.85, 33.54 1.71, 33.88 2.2" stroke="none" stroke-width="0" fill="#ffffff"></path><path d="M32.76 1.71 C40.52 0.08, 52.16 0.4, 61.06 1.33 C69.96 2.25, 79.66 4.41, 86.17 7.28 C92.68 10.15, 98.29 14.68, 100.12 18.56 C101.95 22.44, 100.23 26.7, 97.16 30.56 C94.09 34.41, 88.78 39.07, 81.68 41.69 C74.57 44.3, 63.5 45.7, 54.52 46.26 C45.55 46.82, 35.78 46.87, 27.82 45.03 C19.87 43.19, 11.52 39.1, 6.79 35.2 C2.06 31.31, -0.93 25.94, -0.56 21.65 C-0.19 17.36, 3.39 12.75, 9.02 9.48 C14.65 6.2, 28.79 3.37, 33.21 2 C37.63 0.63, 35.09 0.97, 35.52 1.25 M28.68 0.6 C36.15 -1.01, 48.39 0.75, 57.75 1.48 C67.1 2.2, 78.08 2.46, 84.81 4.95 C91.53 7.44, 95.72 11.99, 98.11 16.41 C100.49 20.83, 101.75 27.39, 99.12 31.45 C96.49 35.51, 89.1 38.14, 82.32 40.78 C75.54 43.42, 67.47 46.76, 58.43 47.28 C49.4 47.79, 36.42 45.78, 28.11 43.89 C19.8 41.99, 13.26 39.29, 8.58 35.9 C3.91 32.5, 0.36 27.71, 0.07 23.52 C-0.21 19.32, 1.92 14.35, 6.87 10.73 C11.82 7.1, 26.02 3.07, 29.79 1.76 C33.56 0.44, 28.99 2.6, 29.48 2.82" stroke="#1e1e1e" stroke-width="2" fill="none"></path></g><g transform="translate(150.17777946940032 317.6483320829532) rotate(0 5.5615234375 11.5)"><text x="5.5615234375" y="0" font-family="Helvetica, Segoe UI Emoji" font-size="20px" fill="#1e1e1e" text-anchor="middle" style="white-space: pre;" direction="ltr" dominant-baseline="text-before-edge">2</text></g><g stroke-linecap="round" transform="translate(526.0527547200522 264.25024541219125) rotate(0 50.50501505533839 23.5)"><path d="M43.14 0.07 C51.82 -1.05, 64.4 -0.48, 72.8 1.29 C81.2 3.07, 88.95 6.92, 93.54 10.7 C98.12 14.49, 100.47 19.75, 100.32 24.01 C100.16 28.27, 97.39 32.83, 92.6 36.27 C87.82 39.7, 80.05 42.81, 71.62 44.62 C63.18 46.43, 51.25 47.71, 42 47.11 C32.75 46.51, 22.83 43.77, 16.11 41.01 C9.39 38.26, 4.08 34.76, 1.69 30.55 C-0.71 26.34, -0.9 20.03, 1.75 15.76 C4.4 11.48, 9.69 7.46, 17.6 4.91 C25.51 2.35, 42.9 1.14, 49.22 0.44 C55.53 -0.26, 55.54 0.35, 55.5 0.69 M52.51 -1.44 C60.99 -1.68, 70.67 0.83, 78.32 3.48 C85.98 6.13, 94.94 10.23, 98.43 14.47 C101.91 18.72, 100.89 24.58, 99.22 28.94 C97.56 33.31, 94.7 38.01, 88.45 40.66 C82.19 43.31, 70.87 43.93, 61.7 44.83 C52.53 45.73, 42.1 47.07, 33.42 46.06 C24.74 45.05, 15.3 42.12, 9.62 38.75 C3.93 35.37, 0.01 30.15, -0.69 25.79 C-1.4 21.43, 0.96 16.3, 5.37 12.58 C9.77 8.87, 17.77 5.37, 25.74 3.5 C33.71 1.63, 48.73 1.88, 53.2 1.36 C57.67 0.85, 52.63 0.24, 52.56 0.41" stroke="none" stroke-width="0" fill="#ffffff"></path><path d="M73.3 1.61 C81.33 3.04, 89.24 7.24, 93.72 11.07 C98.21 14.9, 100.36 20.42, 100.2 24.59 C100.03 28.76, 97.66 32.5, 92.72 36.11 C87.78 39.71, 79.05 44.42, 70.56 46.23 C62.08 48.05, 50.96 48, 41.82 47 C32.68 46, 22.32 43.2, 15.72 40.22 C9.12 37.24, 4.51 33.29, 2.22 29.12 C-0.07 24.95, -0.88 19.28, 1.99 15.21 C4.85 11.14, 12.21 7.13, 19.42 4.68 C26.63 2.24, 35.88 0.69, 45.26 0.54 C54.65 0.39, 70.07 3.29, 75.73 3.79 C81.4 4.29, 79.58 3.41, 79.25 3.54 M31.49 1.77 C39.25 0.01, 51.44 -1.36, 60.48 -0.38 C69.53 0.59, 79.23 4.35, 85.75 7.62 C92.26 10.89, 97.3 15.1, 99.58 19.25 C101.87 23.41, 102.78 28.58, 99.47 32.55 C96.16 36.51, 87.21 40.82, 79.72 43.02 C72.23 45.22, 63.56 45.72, 54.54 45.75 C45.53 45.78, 33.76 45.08, 25.62 43.19 C17.47 41.31, 9.95 38.03, 5.65 34.44 C1.36 30.86, -0.72 25.75, -0.16 21.67 C0.41 17.6, 3.78 13.46, 9.05 9.99 C14.31 6.52, 27.66 2.16, 31.42 0.84 C35.18 -0.47, 31.25 1.84, 31.62 2.09" stroke="#1e1e1e" stroke-width="2" fill="none"></path></g><g transform="translate(570.783807708332 276.1332360543074) rotate(0 5.5615234375 11.5)"><text x="5.5615234375" y="0" font-family="Helvetica, Segoe UI Emoji" font-size="20px" fill="#1e1e1e" text-anchor="middle" style="white-space: pre;" direction="ltr" dominant-baseline="text-before-edge">3</text></g><g stroke-linecap="round" transform="translate(621.6588338216147 314.5027783711756) rotate(0 50.50501505533839 23.5)"><path d="M46.89 0.09 C55.24 -0.34, 65.96 1.49, 73.95 3.43 C81.94 5.38, 90.17 8.21, 94.82 11.75 C99.46 15.3, 102.57 20.42, 101.84 24.69 C101.1 28.96, 95.86 33.78, 90.39 37.38 C84.92 40.98, 77.42 44.69, 69.01 46.28 C60.6 47.88, 49.04 47.78, 39.92 46.94 C30.79 46.1, 20.79 44.38, 14.26 41.25 C7.73 38.11, 2.69 32.43, 0.74 28.11 C-1.21 23.79, -0.57 19.19, 2.57 15.3 C5.71 11.41, 10.83 7.34, 19.6 4.78 C28.37 2.22, 47.9 0.5, 55.21 -0.06 C62.51 -0.61, 63.41 0.97, 63.4 1.47 M64.46 -0.16 C72.94 0.93, 83.4 5.32, 89.46 8.49 C95.52 11.66, 99.64 14.74, 100.82 18.85 C102.01 22.97, 100.53 29.28, 96.56 33.19 C92.59 37.11, 84.57 40, 76.98 42.34 C69.4 44.68, 60.01 46.92, 51.03 47.23 C42.06 47.53, 31.11 46.45, 23.14 44.15 C15.17 41.85, 6.8 37.24, 3.22 33.4 C-0.35 29.56, 0 25.26, 1.68 21.11 C3.35 16.97, 7.64 11.73, 13.27 8.52 C18.91 5.32, 26.95 3.05, 35.49 1.88 C44.03 0.7, 59.56 1.38, 64.5 1.48 C69.45 1.58, 65.18 2.41, 65.16 2.48" stroke="none" stroke-width="0" fill="#ffffff"></path><path d="M74.07 2.1 C81.79 3.53, 89.72 7.83, 94.08 11.8 C98.44 15.77, 100.75 21.65, 100.2 25.92 C99.66 30.2, 96.18 34.07, 90.79 37.44 C85.4 40.81, 76.39 44.65, 67.84 46.14 C59.3 47.64, 48.27 47.35, 39.54 46.41 C30.81 45.47, 21.85 43.38, 15.45 40.5 C9.06 37.63, 3.2 33.33, 1.17 29.17 C-0.85 25.01, 0.24 19.66, 3.3 15.52 C6.36 11.39, 12.36 7.06, 19.55 4.36 C26.73 1.66, 36.98 -0.42, 46.42 -0.67 C55.86 -0.92, 71.1 2.1, 76.19 2.85 C81.27 3.61, 77.33 3.46, 76.93 3.84 M73.93 3.68 C81.87 5.05, 89.09 7.71, 93.56 10.94 C98.04 14.17, 100.88 18.49, 100.76 23.05 C100.64 27.61, 98.05 34.81, 92.83 38.29 C87.6 41.77, 77.99 42.52, 69.41 43.91 C60.82 45.3, 50.04 47.33, 41.32 46.65 C32.59 45.96, 23.82 42.64, 17.05 39.79 C10.27 36.95, 3.17 33.58, 0.66 29.59 C-1.86 25.6, -0.9 19.94, 1.97 15.86 C4.84 11.78, 10.66 7.85, 17.87 5.13 C25.07 2.4, 35.82 -0.28, 45.18 -0.49 C54.55 -0.7, 69.4 3.14, 74.09 3.89 C78.78 4.64, 74.05 3.91, 73.34 4" stroke="#1e1e1e" stroke-width="2" fill="none"></path></g><g transform="translate(666.3898868098945 326.3857690132918) rotate(0 5.5615234375 11.5)"><text x="5.5615234375" y="0" font-family="Helvetica, Segoe UI Emoji" font-size="20px" fill="#1e1e1e" text-anchor="middle" style="white-space: pre;" direction="ltr" dominant-baseline="text-before-edge">4</text></g><g transform="translate(175.34540812174419 61.144166310628236) rotate(0 26.010080973307367 23.929274495442883)"><text x="0" y="0" font-family="Helvetica, Segoe UI Emoji" font-size="20.808064778646003px" fill="#2f9e44" text-anchor="start" style="white-space: pre;" direction="ltr" dominant-baseline="text-before-edge">CWL </text><text x="0" y="23.9292744954429" font-family="Helvetica, Segoe UI Emoji" font-size="20.808064778646003px" fill="#2f9e44" text-anchor="start" style="white-space: pre;" direction="ltr" dominant-baseline="text-before-edge">APP</text></g><g transform="translate(704.739583333333 55.74017054239931) rotate(0 26.010080973307367 23.929274495442883)"><text x="0" y="0" font-family="Helvetica, Segoe UI Emoji" font-size="20.808064778646003px" fill="#2f9e44" text-anchor="start" style="white-space: pre;" direction="ltr" dominant-baseline="text-before-edge">CWL </text><text x="0" y="23.9292744954429" font-family="Helvetica, Segoe UI Emoji" font-size="20.808064778646003px" fill="#2f9e44" text-anchor="start" style="white-space: pre;" direction="ltr" dominant-baseline="text-before-edge">APP</text></g></svg>